<?xml version="1.0" encoding="utf-8"?>
<!-- Generator: Adobe Illustrator 26.0.2, SVG Export Plug-In . SVG Version: 6.00 Build 0)  -->
<svg version="1.1" xmlns="http://www.w3.org/2000/svg" xmlns:xlink="http://www.w3.org/1999/xlink" x="0px" y="0px"
	 viewBox="0 0 249.98 36.35" style="enable-background:new 0 0 249.98 36.35;" xml:space="preserve">
<style type="text/css">
	.st0{fill:#457CBE;}
	.st1{display:none;fill:#457CBE;}
	.st2{display:none;opacity:0.4;fill:#FFFFFF;}
	.st3{display:none;fill:none;stroke:#FFFFFF;stroke-width:1.3711;stroke-miterlimit:10;}
	.st4{fill:#4D4D4D;}
	.st5{fill:#0FB300;}
	.st6{fill:#EF9221;}
	.st7{fill:#FDCE94;}
	.st8{fill:#D32D27;}
	.st9{fill:#F09320;}
	.st10{fill:#D52B1E;}
	.st11{fill:#B871C9;}
	.st12{fill:#407CC9;}
	.st13{display:none;}
	.st14{display:inline;opacity:0.3;fill:#231F20;}
	.st15{fill:#BDB7B0;}
	.st16{fill:#231F20;}
	.st17{fill:#EBEBEB;stroke:#DEDEDE;stroke-width:0.1324;stroke-miterlimit:10;}
	.st18{fill:none;stroke:#919191;stroke-width:0.1986;stroke-miterlimit:10;}
	.st19{fill:none;stroke:#919191;stroke-width:0.2139;stroke-miterlimit:10;}
	.st20{fill:none;stroke:#919191;stroke-width:0.1899;stroke-miterlimit:10;}
	.st21{fill:none;stroke:#919191;stroke-width:0.1914;stroke-miterlimit:10;}
	.st22{fill:none;stroke:#919191;stroke-width:0.1898;stroke-miterlimit:10;}
	.st23{fill:#FFFFFF;}
	.st24{fill:#3B3B3B;}
	.st25{fill:#5C5C5C;}
	.st26{fill:#DBA591;}
	.st27{fill:#008DC4;}
	.st28{fill:#E6B19C;}
	.st29{fill:#DBA18A;}
	.st30{fill:#301B1A;}
	.st31{fill:#009FDE;}
	.st32{fill:none;stroke:#0FB300;stroke-width:4;stroke-miterlimit:10;}
	.st33{fill:none;stroke:#D52B1E;stroke-width:4;stroke-miterlimit:10;}
	.st34{fill:#FFECD4;}
	.st35{fill:#FFE8E8;}
	.st36{opacity:0.4;}
	.st37{fill-rule:evenodd;clip-rule:evenodd;fill:#61B85A;}
	.st38{fill-rule:evenodd;clip-rule:evenodd;fill:#F7D945;}
	.st39{fill-rule:evenodd;clip-rule:evenodd;fill:#FF5445;}
	.st40{fill-rule:evenodd;clip-rule:evenodd;fill:#EB6154;}
	.st41{opacity:0.21;}
	.st42{fill:url(#SVGID_1_);}
	.st43{opacity:0.5;}
	.st44{fill:url(#SVGID_00000099640606654668685510000006087191390211406986_);}
	.st45{fill:url(#SVGID_00000146465689898364850480000017752994748865011870_);}
</style>
<g id="FINAL_ICONS_ON_ARTBOARDS">
	<g id="UNPAIR_BLUETOOTH">
	</g>
	<g id="VIEW_RECENT_ERRORS">
	</g>
	<g id="PAST_RESULTS">
	</g>
	<g id="QUALITY_CONTROL_1_">
	</g>
	<g id="TRASH_CAN_1_">
	</g>
	<g id="_x30_4_QC_EXP.">
	</g>
	<g id="_x30_3_QC_EXP.">
	</g>
	<g id="_x30_2_QC_EXP.">
	</g>
	<g id="_x30_1_QC_EXP.">
	</g>
	<g id="_x30_3B_DEVICE_EXP.">
	</g>
	<g id="_x30_3A_DEVICE_EXP.">
	</g>
	<g id="_x30_2_DEVICE_EXP.">
	</g>
	<g id="_x30_1_DEVICE_EXP.">
	</g>
	<g id="_x30_4C_BATTERY">
	</g>
	<g id="_x30_4B_BATTERY">
	</g>
	<g id="_x30_4A_BATTERY">
	</g>
	<g id="_x30_3C_BATTERY">
	</g>
	<g id="_x30_3B_BATTERY">
	</g>
	<g id="_x30_3A_BATTERY">
	</g>
	<g id="_x30_2_BATTERY">
	</g>
	<g id="_x30_1_BATTERY">
	</g>
	<g id="SHORT">
	</g>
	<g id="STANDARD">
	</g>
	<g id="_x30_0" class="st13">
	</g>
</g>
<g id="POSTURE_ILLOS">
	<g id="_x30_2_GOOD_POSTURE">
	</g>
	<g id="_x30_1_BAD_POSTURE">
	</g>
	<g>
		<path class="st23" d="M89.93,16.29c0.88,0,1.59-0.71,1.59-1.59c0-0.88-1.59-2.71-1.59-2.71s-1.59,1.84-1.59,2.71
			C88.33,15.58,89.05,16.29,89.93,16.29"/>
		<path class="st23" d="M89.04,9.78c0.04-0.93-0.68-1.71-1.6-1.75c-0.93-0.04-1.71,0.68-1.75,1.6c-0.04,0.93,1.51,3.73,1.51,3.73
			S89,10.7,89.04,9.78"/>
		<path class="st23" d="M94.16,9.63c-0.04-0.92-0.82-1.64-1.75-1.6c-0.93,0.04-1.64,0.82-1.6,1.75c0.04,0.92,1.84,3.58,1.84,3.58
			S94.2,10.56,94.16,9.63"/>
		<path class="st23" d="M96.34,18.02c0.62-0.62,0.8-3.04,0.8-3.04s-2.42,0.17-3.04,0.79c-0.62,0.62-0.62,1.63,0,2.25
			C94.71,18.64,95.72,18.64,96.34,18.02"/>
		<path class="st23" d="M98.18,10.42c-0.63-0.68-1.69-0.73-2.37-0.1c-0.68,0.62-1.57,3.71-1.57,3.71s3.15-0.61,3.83-1.23
			C98.75,12.16,98.8,11.1,98.18,10.42"/>
		<path class="st23" d="M101.79,16.3c0.63-0.68,0.58-1.75-0.11-2.37c-0.68-0.62-1.75-0.58-2.37,0.11c-0.63,0.68-1.23,3.83-1.23,3.83
			S101.17,16.99,101.79,16.3"/>
		<path class="st23" d="M100.12,22.19c0,0-1.84-1.59-2.72-1.59c-0.88,0-1.59,0.71-1.59,1.59c0,0.88,0.71,1.59,1.59,1.59
			C98.28,23.78,100.12,22.19,100.12,22.19"/>
		<path class="st23" d="M102.33,21.31c0.93,0.04,1.71-0.68,1.75-1.6c0.04-0.93-0.68-1.71-1.6-1.75c-0.93-0.04-3.73,1.51-3.73,1.51
			S101.4,21.27,102.33,21.31"/>
		<path class="st23" d="M102.33,23.07c-0.93,0.04-3.58,1.84-3.58,1.84s2.8,1.56,3.73,1.51c0.93-0.04,1.64-0.82,1.6-1.75
			C104.04,23.75,103.25,23.03,102.33,23.07"/>
		<path class="st23" d="M94.09,28.61c0.62,0.62,3.04,0.8,3.04,0.8s-0.17-2.42-0.8-3.04c-0.62-0.62-1.63-0.62-2.25,0
			C93.46,26.98,93.46,27.99,94.09,28.61"/>
		<path class="st23" d="M98.09,26.51c0,0,0.61,3.15,1.23,3.83c0.62,0.68,1.69,0.73,2.37,0.11c0.68-0.63,0.73-1.69,0.11-2.37
			C101.17,27.39,98.09,26.51,98.09,26.51"/>
		<path class="st23" d="M94.24,30.35c0,0,0.88,3.08,1.57,3.71c0.68,0.62,1.74,0.58,2.37-0.11c0.62-0.68,0.58-1.75-0.11-2.37
			C97.39,30.96,94.24,30.35,94.24,30.35"/>
		<path class="st23" d="M89.92,28.08c-0.88,0-1.59,0.71-1.59,1.59c0,0.88,1.59,2.71,1.59,2.71s1.59-1.84,1.59-2.71
			C91.51,28.8,90.79,28.08,89.92,28.08"/>
		<path class="st23" d="M90.8,34.6c-0.04,0.92,0.68,1.71,1.6,1.75c0.93,0.04,1.71-0.68,1.75-1.6c0.04-0.93-1.51-3.73-1.51-3.73
			S90.85,33.67,90.8,34.6"/>
		<path class="st23" d="M85.69,34.75c0.04,0.93,0.82,1.64,1.75,1.6c0.93-0.04,1.64-0.83,1.6-1.75c-0.04-0.92-1.84-3.58-1.84-3.58
			S85.64,33.82,85.69,34.75"/>
		<path class="st23" d="M85.75,26.35c-0.62-0.62-1.63-0.62-2.25,0c-0.62,0.62-0.8,3.04-0.8,3.04s2.42-0.17,3.04-0.8
			C86.37,27.98,86.37,26.97,85.75,26.35"/>
		<path class="st23" d="M81.67,33.96c0.63,0.68,1.69,0.73,2.37,0.11c0.68-0.63,1.57-3.71,1.57-3.71s-3.15,0.61-3.83,1.23
			C81.09,32.21,81.04,33.27,81.67,33.96"/>
		<path class="st23" d="M78.05,28.07c-0.62,0.68-0.58,1.75,0.11,2.37c0.68,0.63,1.75,0.58,2.37-0.11c0.63-0.68,1.23-3.83,1.23-3.83
			S78.67,27.39,78.05,28.07"/>
		<path class="st23" d="M84.03,22.18c0-0.88-0.71-1.59-1.59-1.59c-0.88,0-2.71,1.59-2.71,1.59s1.84,1.59,2.71,1.59
			C83.31,23.77,84.03,23.06,84.03,22.18"/>
		<path class="st23" d="M77.51,23.07c-0.93-0.04-1.71,0.67-1.75,1.6c-0.04,0.92,0.68,1.71,1.6,1.75c0.93,0.04,3.73-1.51,3.73-1.51
			S78.44,23.11,77.51,23.07"/>
		<path class="st23" d="M77.51,21.31c0.93-0.04,3.58-1.84,3.58-1.84s-2.8-1.55-3.73-1.51c-0.93,0.04-1.64,0.83-1.6,1.75
			C75.8,20.63,76.59,21.35,77.51,21.31"/>
		<path class="st23" d="M85.75,15.77c-0.62-0.62-3.04-0.79-3.04-0.79s0.17,2.42,0.8,3.04c0.62,0.62,1.63,0.62,2.25,0
			C86.38,17.4,86.38,16.39,85.75,15.77"/>
		<path class="st23" d="M81.75,17.87c0,0-0.61-3.15-1.23-3.83c-0.63-0.68-1.69-0.73-2.37-0.11c-0.68,0.62-0.73,1.69-0.11,2.37
			C78.67,16.99,81.75,17.87,81.75,17.87"/>
		<path class="st23" d="M85.6,14.02c0,0-0.88-3.08-1.57-3.71c-0.68-0.62-1.74-0.58-2.37,0.11c-0.63,0.68-0.58,1.75,0.11,2.37
			C82.45,13.41,85.6,14.02,85.6,14.02"/>
		<path class="st23" d="M0,10.59V34.3h5.02V19.62H18.6v-4.74H5.02v-4.3C5.02,6.93,6.89,5,10.42,5h10.23V0.17H10.42
			C3.99,0.17,0,4.16,0,10.59"/>
		<path class="st23" d="M42.31,25.36c-1.54,2.79-3.85,4.15-7.08,4.15c-2.56,0-4.91-1.18-6.39-3.18l18.71-7.91l-0.09-0.39
			c-1.38-6.19-6.51-10.51-12.47-10.51c-7.09,0-12.86,6.03-12.86,13.43c0,7.48,5.75,13.34,13.1,13.34c5.84,0,10.16-3.03,12.16-8.54
			l0.23-0.65h-5.18L42.31,25.36z M27.15,20.91c0-5.31,4.07-8.6,7.84-8.6c2.46,0,4.84,1.38,6.32,3.64L27.2,21.9
			C27.17,21.58,27.15,21.26,27.15,20.91"/>
		<path class="st23" d="M61.89,8.1c-6.33,0-10.76,4.42-10.76,10.76V34.3h4.98V18.71c0-3.51,2.32-5.87,5.78-5.87
			c3.43,0,5.73,2.36,5.73,5.87V34.3h4.98V18.86C72.6,12.52,68.2,8.1,61.89,8.1"/>
		<path class="st23" d="M131.49,8.1c-3.12,0-5.72,1.29-7.4,3.66c-1.63-2.33-4.27-3.66-7.36-3.66c-5.73,0-9.9,4.18-9.9,9.94V34.3
			h5.02V17.9c0-3.06,1.96-5.11,4.87-5.11c2.91,0,4.87,2.05,4.87,5.11v16.4h5.02V17.9c0-3.06,1.96-5.11,4.87-5.11
			c2.92,0,4.87,2.05,4.87,5.11v16.4h5.02V18.04C141.39,12.28,137.23,8.1,131.49,8.1"/>
		<path class="st23" d="M210.56,34.3c6.33,0,10.29-4.42,10.29-10.76V8.1h-4.06v15.58c0,3.51-2.77,6.79-6.23,6.79
			c-3.43,0-6.18-3.28-6.18-6.79V8.1h-4.06v15.44C200.31,29.87,204.25,34.3,210.56,34.3"/>
		<rect x="191.32" class="st23" width="4" height="34.29"/>
		<path class="st23" d="M177.76,0.09c5.33,0,8.78,5.04,8.78,10.51s-3.4,9.7-8.64,9.7h-9.05V34.3h-4.19V7.76
			c0-4.23,3.43-7.67,7.67-7.67H177.76z M168.85,16.18h8.91c2.5,0,4.59-2.86,4.59-5.57c0-3.78-2.92-6.39-6.08-6.39h-3.04
			c-2.42,0-4.39,1.96-4.39,4.38V16.18z"/>
		<path class="st23" d="M249.98,8.97c0,1.59-1.15,2.65-2.66,2.65c-1.51,0-2.7-1.07-2.7-2.65c0-1.58,1.17-2.64,2.7-2.64
			C248.84,6.33,249.98,7.39,249.98,8.97 M249.55,8.97c0-1.39-0.97-2.3-2.24-2.3c-1.27,0-2.26,0.91-2.26,2.3
			c0,1.41,0.98,2.3,2.26,2.3C248.59,11.28,249.55,10.38,249.55,8.97 M247.94,9.27l0.45,1.02h-0.57l-0.37-0.94h-0.62v0.94h-0.53V7.63
			h1.24c0.53,0,0.88,0.37,0.88,0.86C248.43,8.89,248.26,9.15,247.94,9.27 M246.85,8.89h0.63c0.31,0,0.43-0.19,0.43-0.39
			c0-0.29-0.16-0.42-0.45-0.42h-0.61V8.89z"/>
		<path class="st23" d="M236.93,19.11h-2.84v0h-1.89c-1.62,0.01-3.44-1.1-3.44-3.53c0-2.36,1.54-3.54,3.44-3.52h10.39V8.03h-10.29
			c-4.41,0-7.49,3.1-7.49,7.55c0,4.46,3.08,7.58,7.49,7.58h2.84v0h1.89c1.62-0.02,3.44,1.1,3.44,3.53c0,2.36-1.54,3.54-3.44,3.52
			H225.7v4.02h11.22c4.41,0,7.49-3.1,7.49-7.55C244.42,22.23,241.34,19.11,236.93,19.11"/>
	</g>
</g>
</svg>
