<?xml version="1.0" encoding="utf-8"?>
<!-- Generator: Adobe Illustrator 26.0.2, SVG Export Plug-In . SVG Version: 6.00 Build 0)  -->
<svg version="1.1" xmlns="http://www.w3.org/2000/svg" xmlns:xlink="http://www.w3.org/1999/xlink" x="0px" y="0px"
	 viewBox="0 0 21.26 32.57" style="enable-background:new 0 0 21.26 32.57;" xml:space="preserve">
<style type="text/css">
	.st0{fill:#457CBE;}
	.st1{display:none;fill:#457CBE;}
	.st2{display:none;opacity:0.4;fill:#FFFFFF;}
	.st3{display:none;fill:none;stroke:#FFFFFF;stroke-width:1.3711;stroke-miterlimit:10;}
	.st4{fill:#4D4D4D;}
	.st5{fill:#0FB300;}
	.st6{fill:#EF9221;}
	.st7{fill:#FDCE94;}
	.st8{fill:#D32D27;}
	.st9{fill:#F09320;}
	.st10{fill:#D52B1E;}
	.st11{fill:#B871C9;}
	.st12{fill:#407CC9;}
	.st13{display:none;}
	.st14{display:inline;opacity:0.3;fill:#231F20;}
	.st15{fill:#BDB7B0;}
	.st16{fill:#231F20;}
	.st17{fill:#EBEBEB;stroke:#DEDEDE;stroke-width:0.1324;stroke-miterlimit:10;}
	.st18{fill:none;stroke:#919191;stroke-width:0.1986;stroke-miterlimit:10;}
	.st19{fill:none;stroke:#919191;stroke-width:0.2139;stroke-miterlimit:10;}
	.st20{fill:none;stroke:#919191;stroke-width:0.1899;stroke-miterlimit:10;}
	.st21{fill:none;stroke:#919191;stroke-width:0.1914;stroke-miterlimit:10;}
	.st22{fill:none;stroke:#919191;stroke-width:0.1898;stroke-miterlimit:10;}
	.st23{fill:#FFFFFF;}
	.st24{fill:#3B3B3B;}
	.st25{fill:#5C5C5C;}
	.st26{fill:#DBA591;}
	.st27{fill:#008DC4;}
	.st28{fill:#E6B19C;}
	.st29{fill:#DBA18A;}
	.st30{fill:#301B1A;}
	.st31{fill:#009FDE;}
	.st32{fill:none;stroke:#0FB300;stroke-width:4;stroke-miterlimit:10;}
	.st33{fill:none;stroke:#D52B1E;stroke-width:4;stroke-miterlimit:10;}
	.st34{fill:#FFECD4;}
	.st35{fill:#FFE8E8;}
	.st36{opacity:0.4;}
	.st37{fill-rule:evenodd;clip-rule:evenodd;fill:#61B85A;}
	.st38{fill-rule:evenodd;clip-rule:evenodd;fill:#F7D945;}
	.st39{fill-rule:evenodd;clip-rule:evenodd;fill:#FF5445;}
	.st40{fill-rule:evenodd;clip-rule:evenodd;fill:#EB6154;}
	.st41{opacity:0.21;}
	.st42{fill:url(#SVGID_1_);}
	.st43{opacity:0.5;}
	.st44{fill:url(#SVGID_00000028305298831074067570000009382018840052600999_);}
	.st45{fill:url(#SVGID_00000101788006026282863070000007251708891774195376_);}
</style>
<g id="FINAL_ICONS_ON_ARTBOARDS">
	<g id="UNPAIR_BLUETOOTH">
		<g>
			<g>
				<path class="st0" d="M10.34,18.27v13.36c0,0.36,0.2,0.69,0.53,0.85c0.12,0.06,0.27,0.09,0.41,0.09l0,0
					c0.21,0,0.42-0.07,0.58-0.19l9.03-6.96c0.22-0.17,0.35-0.43,0.37-0.71c0.01-0.28-0.1-0.55-0.3-0.74l-8.29-7.68l8.29-7.69
					c0.2-0.19,0.31-0.46,0.3-0.74c-0.01-0.28-0.15-0.54-0.37-0.71l-9.03-6.96c-0.27-0.21-0.69-0.25-0.99-0.1
					c-0.33,0.16-0.53,0.48-0.53,0.85V14.3l-8.8-7.13c-0.37-0.3-1.03-0.23-1.33,0.14C0.05,7.5-0.02,7.75,0.01,8
					c0.03,0.25,0.15,0.48,0.34,0.64l9.43,7.65l-9.43,7.64c-0.2,0.16-0.32,0.39-0.34,0.64c-0.03,0.25,0.05,0.5,0.2,0.69
					c0.3,0.37,0.96,0.44,1.33,0.14L10.34,18.27z M11.95,30.26V17.82l7.33,6.8L11.95,30.26z M11.95,14.75V2.3l7.33,5.65L11.95,14.75z
					"/>
			</g>
		</g>
	</g>
	<g id="VIEW_RECENT_ERRORS">
	</g>
	<g id="PAST_RESULTS">
	</g>
	<g id="QUALITY_CONTROL_1_">
	</g>
	<g id="TRASH_CAN_1_">
	</g>
	<g id="_x30_4_QC_EXP.">
	</g>
	<g id="_x30_3_QC_EXP.">
	</g>
	<g id="_x30_2_QC_EXP.">
	</g>
	<g id="_x30_1_QC_EXP.">
	</g>
	<g id="_x30_3B_DEVICE_EXP.">
	</g>
	<g id="_x30_3A_DEVICE_EXP.">
	</g>
	<g id="_x30_2_DEVICE_EXP.">
	</g>
	<g id="_x30_1_DEVICE_EXP.">
	</g>
	<g id="_x30_4C_BATTERY">
	</g>
	<g id="_x30_4B_BATTERY">
	</g>
	<g id="_x30_4A_BATTERY">
	</g>
	<g id="_x30_3C_BATTERY">
	</g>
	<g id="_x30_3B_BATTERY">
	</g>
	<g id="_x30_3A_BATTERY">
	</g>
	<g id="_x30_2_BATTERY">
	</g>
	<g id="_x30_1_BATTERY">
	</g>
	<g id="SHORT">
	</g>
	<g id="STANDARD">
	</g>
	<g id="_x30_0" class="st13">
		<rect x="-36.38" y="-36.53" class="st14" width="36.53" height="479.66"/>
		<rect x="-586.8" y="-36.53" class="st14" width="645.32" height="36.53"/>
	</g>
</g>
<g id="POSTURE_ILLOS">
	<g id="_x30_2_GOOD_POSTURE">
	</g>
	<g id="_x30_1_BAD_POSTURE">
	</g>
</g>
</svg>
