<?xml version="1.0" encoding="utf-8"?>
<!-- Generator: Adobe Illustrator 26.0.2, SVG Export Plug-In . SVG Version: 6.00 Build 0)  -->
<svg version="1.1" xmlns="http://www.w3.org/2000/svg" xmlns:xlink="http://www.w3.org/1999/xlink" x="0px" y="0px"
	 viewBox="0 0 267.56 173.08" style="enable-background:new 0 0 267.56 173.08;" xml:space="preserve">
<style type="text/css">
	.st0{fill:#457CBE;}
	.st1{display:none;fill:#457CBE;}
	.st2{display:none;opacity:0.4;fill:#FFFFFF;}
	.st3{display:none;fill:none;stroke:#FFFFFF;stroke-width:1.3711;stroke-miterlimit:10;}
	.st4{fill:#4D4D4D;}
	.st5{fill:#0FB300;}
	.st6{fill:#EF9221;}
	.st7{fill:#FDCE94;}
	.st8{fill:#D32D27;}
	.st9{fill:#F09320;}
	.st10{fill:#D52B1E;}
	.st11{fill:#B871C9;}
	.st12{fill:#407CC9;}
	.st13{display:none;}
	.st14{display:inline;opacity:0.3;fill:#231F20;}
	.st15{fill:#BDB7B0;}
	.st16{fill:#231F20;}
	.st17{fill:#EBEBEB;stroke:#DEDEDE;stroke-width:0.1324;stroke-miterlimit:10;}
	.st18{fill:none;stroke:#919191;stroke-width:0.1986;stroke-miterlimit:10;}
	.st19{fill:none;stroke:#919191;stroke-width:0.2139;stroke-miterlimit:10;}
	.st20{fill:none;stroke:#919191;stroke-width:0.1899;stroke-miterlimit:10;}
	.st21{fill:none;stroke:#919191;stroke-width:0.1914;stroke-miterlimit:10;}
	.st22{fill:none;stroke:#919191;stroke-width:0.1898;stroke-miterlimit:10;}
	.st23{fill:#FFFFFF;}
	.st24{fill:#3B3B3B;}
	.st25{fill:#5C5C5C;}
	.st26{fill:#DBA591;}
	.st27{fill:#008DC4;}
	.st28{fill:#E6B19C;}
	.st29{fill:#DBA18A;}
	.st30{fill:#301B1A;}
	.st31{fill:#009FDE;}
	.st32{fill:none;stroke:#0FB300;stroke-width:4;stroke-miterlimit:10;}
	.st33{fill:none;stroke:#D52B1E;stroke-width:4;stroke-miterlimit:10;}
	.st34{fill:#FFECD4;}
	.st35{fill:#FFE8E8;}
	.st36{opacity:0.4;}
	.st37{fill-rule:evenodd;clip-rule:evenodd;fill:#61B85A;}
	.st38{fill-rule:evenodd;clip-rule:evenodd;fill:#F7D945;}
	.st39{fill-rule:evenodd;clip-rule:evenodd;fill:#FF5445;}
	.st40{fill-rule:evenodd;clip-rule:evenodd;fill:#EB6154;}
	.st41{opacity:0.21;}
	.st42{fill:url(#SVGID_1_);}
	.st43{opacity:0.5;}
	.st44{fill:url(#SVGID_00000074433929664998958150000002700572899705525174_);}
	.st45{fill:url(#SVGID_00000172423965097472548030000000564071359209234055_);}
</style>
<g id="FINAL_ICONS_ON_ARTBOARDS">
	<g id="UNPAIR_BLUETOOTH">
	</g>
	<g id="VIEW_RECENT_ERRORS">
	</g>
	<g id="PAST_RESULTS">
	</g>
	<g id="QUALITY_CONTROL_1_">
	</g>
	<g id="TRASH_CAN_1_">
	</g>
	<g id="_x30_4_QC_EXP.">
	</g>
	<g id="_x30_3_QC_EXP.">
	</g>
	<g id="_x30_2_QC_EXP.">
	</g>
	<g id="_x30_1_QC_EXP.">
	</g>
	<g id="_x30_3B_DEVICE_EXP.">
	</g>
	<g id="_x30_3A_DEVICE_EXP.">
	</g>
	<g id="_x30_2_DEVICE_EXP.">
	</g>
	<g id="_x30_1_DEVICE_EXP.">
	</g>
	<g id="_x30_4C_BATTERY">
	</g>
	<g id="_x30_4B_BATTERY">
	</g>
	<g id="_x30_4A_BATTERY">
	</g>
	<g id="_x30_3C_BATTERY">
	</g>
	<g id="_x30_3B_BATTERY">
	</g>
	<g id="_x30_3A_BATTERY">
	</g>
	<g id="_x30_2_BATTERY">
	</g>
	<g id="_x30_1_BATTERY">
	</g>
	<g id="SHORT">
	</g>
	<g id="STANDARD">
	</g>
	<g id="_x30_0" class="st13">
	</g>
</g>
<g id="POSTURE_ILLOS">
	<g id="_x30_2_GOOD_POSTURE">
		<g>
			<path class="st15" d="M173.65,91.85c1.74-2.59,1.9-15.29,1.89-19.31l0-0.13l0-0.24c-0.01-4.02-0.23-16.73-1.98-19.31
				c-2.24-3.29-6.02-2.94-8.02-1.91c-0.74,0.38-1.2,1.14-1.2,1.97l0.09,38.91c0,0.83,0.46,1.59,1.2,1.97
				C167.65,94.82,171.43,95.14,173.65,91.85z"/>
			<path class="st15" d="M219.04,112.31c-3.15-2.13-18.65-2.36-23.55-2.36l-0.16,0l-0.29,0c-4.9,0-20.4,0.23-23.55,2.36
				c-0.55,0.37-1.01,0.78-1.4,1.21c-8.37-3.45-14.29-11.69-14.29-21.29c0-9.27,5.52-17.6,14.06-21.21l-1.17-2.76
				c-9.65,4.08-15.89,13.5-15.89,23.98c0,10.72,6.51,19.94,15.79,23.92c-0.66,2.17-0.22,4.45,0.54,5.93c0.46,0.9,1.39,1.46,2.4,1.46
				h11.2l6.94,2.2h0.42v4.5c0,1.66,1.34,5.25,3,5.25h0.17v7.17h-1.17v7.26l-0.01-0.03c-0.08,0.02-8.37,1.96-13.65,3.32
				c-3.76,0.97-5.38,3.39-5.94,5.48c-1.67,0.61-2.88,2.21-2.88,4.09c0,2.42,1.96,4.38,4.38,4.38s4.38-1.96,4.38-4.38
				c0-1.65-0.93-3.07-2.28-3.82c0.41-0.89,1.31-1.87,3.23-2.36c4.28-1.11,10.59-2.6,12.78-3.12v4.42h1.17v3.75h4v-3.75h1.17v-4.42
				c2.19,0.52,8.49,2.01,12.78,3.12c1.92,0.5,2.81,1.48,3.23,2.36c-1.35,0.74-2.28,2.17-2.28,3.82c0,2.42,1.96,4.38,4.38,4.38
				s4.38-1.96,4.38-4.38c0-1.89-1.2-3.48-2.88-4.09c-0.57-2.08-2.19-4.5-5.94-5.48c-5.27-1.36-13.56-3.3-13.65-3.32l-0.01,0.03
				v-7.26h-1.17v-7.17h0.17c1.66,0,3-3.59,3-5.25v-4.6l6.93-2.1h11.62c1.02,0,1.94-0.56,2.4-1.46
				C222.64,119.65,223.05,115.03,219.04,112.31z"/>
		</g>
		<g>
			<g>
				<g>
					<path class="st16" d="M235.52,148.33c-0.08-0.63-0.28-1.21-0.11-1.3c0.17-0.09,0.36,0.01,0.83,0.18
						c0.48,0.18,1.72,0.35,2.65,0.3c0.94-0.05,1.63-0.16,1.63-0.16s-0.14-1.49,0.74-2.12c0.88-0.63,1.53-1,1.53-1s1.2,2.3,1.47,2.93
						c0.27,0.63,2.46,4.06,3.02,4.93c0.56,0.88,2.18,2.49,3.92,3.2c1.73,0.71,4.09,1.45,4.9,1.66c0.81,0.21,2.58,0.56,2.58,0.56
						s0-0.04,0.46-0.06c0.46-0.01,3-0.15,3.47-0.02c0.18,0.05,0.35,0.11,0.49,0.17c0.23,0.1,0.4,0.09,0.48,0.14
						c0.14,0.08,0.14,0.08,0.14,0.08s0.73,0.5,0.93,1.24c0,0,0.13,0.79,0.2,0.94c0.07,0.14-0.06,0.48-0.79,0.89
						c-0.73,0.41-4.24,2.35-8.56,2.64c-4.32,0.29-6.32-0.09-7.33-0.16c0,0-5.87-0.06-7.19-0.04c-1.32,0.02-6.56-0.14-7.25-0.35
						c-0.69-0.21-0.76-0.21-0.92-0.64c-0.16-0.43,0.03-2.3,0.15-2.58c0.13-0.28,0.18-0.55,0.18-0.55s0.59-3,1.07-4
						c0.48-1,1.08-2.37,1.2-3.61C235.55,150.37,235.52,148.33,235.52,148.33z"/>
					<path class="st17" d="M258.68,157.63c0,0,0-0.14,0.46-0.16c0.46-0.01,3-0.15,3.47-0.02c0.18,0.05,0.35,0.11,0.49,0.17
						c0,0,0.77,0.24-1.52,1.03c-2.29,0.79-2.67,0.66-2.67,0.66S258.49,158.61,258.68,157.63z"/>
					<path class="st17" d="M232.98,159.74c-0.13,0.29-0.31,2.15-0.15,2.58c0.16,0.43,0.23,0.44,0.92,0.64
						c0.69,0.21,5.93,0.37,7.25,0.35c1.32-0.02,7.19,0.04,7.19,0.04c1.01,0.07,3.01,0.45,7.33,0.16c4.32-0.29,7.83-2.23,8.56-2.64
						c0.73-0.42,0.86-0.75,0.79-0.89c-0.07-0.15-0.2-0.94-0.2-0.94c-0.2-0.75-0.93-1.24-0.93-1.24s0,0-0.14-0.07
						c-0.06-0.03-0.21,0.02-0.33-0.04c0,0-0.27,0.93-4.81,1.84c-4.55,0.91-4.68,1.29-8.99,1.22c-4.31-0.07-6.68-0.17-9.1-0.29
						c-2.42-0.12-6.24-0.54-6.67-0.65C233.26,159.7,232.98,159.74,232.98,159.74z"/>
					<path class="st18" d="M243.41,148.78c-0.01,0.32-0.23,0.57-0.51,0.57c-0.27-0.01-0.49-0.27-0.48-0.59
						c0.01-0.32,0.24-0.57,0.51-0.57C243.2,148.2,243.42,148.46,243.41,148.78z"/>
					<path class="st19" d="M244.56,150.8c-0.01,0.34-0.25,0.62-0.55,0.61c-0.3-0.01-0.53-0.29-0.52-0.63
						c0.01-0.34,0.25-0.61,0.55-0.61C244.33,150.18,244.57,150.46,244.56,150.8z"/>
					<path class="st19" d="M245.77,152.87c-0.01,0.34-0.25,0.62-0.55,0.61c-0.3-0.01-0.53-0.29-0.52-0.63
						c0.01-0.34,0.25-0.62,0.55-0.61C245.54,152.24,245.78,152.52,245.77,152.87z"/>
					<path class="st19" d="M247.37,154.59c-0.01,0.34-0.25,0.61-0.55,0.61c-0.3-0.01-0.53-0.29-0.52-0.63
						c0.01-0.34,0.25-0.61,0.55-0.61C247.15,153.96,247.38,154.25,247.37,154.59z"/>
					<path class="st20" d="M249.16,155.93c-0.01,0.29-0.23,0.52-0.51,0.52c-0.27-0.01-0.49-0.25-0.48-0.54
						c0.01-0.29,0.23-0.52,0.51-0.52C248.95,155.39,249.17,155.63,249.16,155.93z"/>
					<path class="st21" d="M251.41,156.79c-0.01,0.27-0.25,0.49-0.55,0.48c-0.3-0.01-0.53-0.23-0.53-0.51
						c0.01-0.27,0.25-0.49,0.55-0.48C251.18,156.29,251.42,156.51,251.41,156.79z"/>
					<path class="st21" d="M253.63,157.56c-0.01,0.27-0.25,0.49-0.55,0.49c-0.3-0.01-0.53-0.23-0.53-0.51
						c0.01-0.27,0.25-0.49,0.55-0.48C253.4,157.06,253.64,157.29,253.63,157.56z"/>
					<path class="st22" d="M255.86,158c-0.01,0.27-0.25,0.48-0.55,0.48c-0.3-0.01-0.53-0.23-0.53-0.5c0.01-0.27,0.25-0.48,0.55-0.48
						C255.63,157.51,255.86,157.73,255.86,158z"/>
					<path class="st23" d="M244.87,148.15c0,0-0.54-0.32-1.14-0.22c-0.6,0.11-1.19,0.68-1.21,0.84c-0.02,0.17,0.04,0.49,0.35,0.45
						c0.31-0.04,0.4-0.37,0.81-0.36c0.41,0.01,1.08-0.05,1.2-0.05c0.12,0,0.22,0.03,0.22,0.03l-0.38,0.63l0.34,0.52
						c0,0-0.55,0.24-0.78,0.3c-0.23,0.06-0.56,0.16-0.56,0.16s-0.21,0.26-0.07,0.59c0.14,0.33,0.44,0.26,0.44,0.26
						s0.75-0.27,1.08-0.32c0.33-0.06,0.91-0.06,0.91-0.06l-0.29,0.42l0.5,0.71c0,0-0.55,0.25-0.75,0.3
						c-0.2,0.05-0.65,0.19-0.68,0.25c-0.04,0.12-0.08,0.28-0.01,0.49c0.12,0.33,0.38,0.3,0.38,0.3s0.18-0.13,0.65-0.23
						c0.47-0.11,1.48-0.38,1.48-0.38l-0.24,0.34l0.52,0.51c0,0-0.5,0.27-0.67,0.4c-0.17,0.13-0.52,0.38-0.52,0.38
						s-0.11,0.21,0.01,0.47c0.1,0.23,0.38,0.24,0.38,0.24l0.39-0.27c0,0,0.64-0.32,0.88-0.4c0.25-0.08,0.25-0.14,0.25-0.14
						l0.31,0.06l0,0.17l0.69,0.43c0,0-0.49,0.3-0.59,0.38c-0.1,0.08-0.45,0.38-0.45,0.38s-0.15,0.38,0.13,0.59
						c0.16,0.12,0.39,0.02,0.39,0.02s0.19-0.15,0.48-0.33c0.19-0.12,0.79-0.53,1.01-0.56c0.21-0.03,0.36,0.02,0.36,0.02l0.03,0.17
						l0.61,0.28c0,0-0.56,0.43-0.7,0.55c-0.18,0.15-0.19,0.31-0.19,0.31s0,0.17,0.16,0.33c0.16,0.14,0.35,0.09,0.35,0.09
						s0.14-0.22,0.35-0.32c0.03-0.02,0.07-0.03,0.1-0.05c0.25-0.11,0.89-0.53,0.89-0.53l0.38,0.09l0.64,0.25l-0.3-0.49l0.74,0.22
						l0.37,0.3c0,0-0.43-0.04-0.65,0.05c-0.22,0.09-0.62,0.47-0.67,0.6c-0.05,0.13-0.02,0.31-0.02,0.31s0.02-0.07,0.17,0.02
						c0.15,0.09,0.23,0.2,0.23,0.2s0.2-0.03,0.37-0.17c0.17-0.15,0.61-0.5,0.72-0.6c0.12-0.1,0.22-0.11,0.22-0.11s0.2,0.1,0.35,0.11
						c0.15,0,0.35,0.09,0.35,0.09s-0.16,0.49-0.15,0.69c0.01,0.2,0.01,0.35,0.01,0.35s0.16,0.07,0.29,0.12
						c0.13,0.05,0.3-0.08,0.45-0.31c0.15-0.23,0.47-0.98,0.47-0.98s-0.67-0.3-0.79-0.22c-0.12,0.08-0.22,0.21-0.22,0.21l-0.32-0.31
						c0,0-0.88-0.42-1.18-0.51c-0.3-0.09-1.85-0.7-1.85-0.7l0.37,0.49l-0.69-0.18c0,0-0.06-0.3-0.17-0.42
						c-0.11-0.12-1.05-0.49-1.05-0.49l-0.83,0.02l-0.05-0.68c0,0-0.37-0.42-0.47-0.54c-0.1-0.12-0.24-0.22-0.24-0.22l-0.66-0.01
						l0.14-0.34c0,0-0.61-1.02-0.77-1.09c-0.16-0.07-0.28-0.11-0.28-0.11l-0.71,0.08l0.4-0.72c0,0-0.59-1.14-0.78-1.24
						c-0.2-0.1-0.51-0.14-0.51-0.14l0.11-0.33C245.66,149.58,245.52,148.36,244.87,148.15z"/>
					<path class="st13" d="M250.88,165.17c-0.25-0.01-0.46-0.01-0.6-0.02c-0.25-0.01-0.67-0.04-1.21-0.08
						c-1.21-0.09-3.04-0.22-4.36-0.24c-1.87-0.02-5.5,0.06-5.54,0.06c-5.17,0.04-6.35-0.92-6.41-0.96l-0.01-0.38
						c0.01,0.01,1.42,0.98,6.41,0.94c0.03,0,3.66-0.07,5.54-0.06c1.34,0.01,3.18,0.15,4.39,0.24c0.53,0.04,0.95,0.07,1.19,0.08
						c0.66,0.03,2.92,0.1,4.59-0.29l0.09,0.39C253.62,165.17,251.87,165.19,250.88,165.17z"/>
					<polygon points="254.87,163.52 254.5,160.44 254.89,160.33 255.27,163.47 					"/>
				</g>
			</g>
			<g>
				<g>
					<path class="st16" d="M229.83,154.25c-0.08-0.63-0.28-1.21-0.11-1.3c0.17-0.09,0.36,0.01,0.83,0.18
						c0.48,0.18,1.72,0.35,2.65,0.3c0.94-0.05,1.63-0.16,1.63-0.16s-0.14-1.49,0.74-2.12c0.88-0.63,1.53-1,1.53-1s1.2,2.3,1.47,2.93
						c0.27,0.63,2.46,4.06,3.02,4.93c0.56,0.88,2.18,2.49,3.92,3.2c1.73,0.71,4.09,1.45,4.9,1.66c0.81,0.21,2.58,0.56,2.58,0.56
						s0-0.04,0.46-0.06c0.46-0.01,3-0.15,3.47-0.02c0.18,0.05,0.35,0.11,0.49,0.17c0.23,0.1,0.39,0.09,0.48,0.14
						c0.14,0.07,0.14,0.07,0.14,0.07s0.73,0.5,0.93,1.24c0,0,0.13,0.79,0.2,0.94c0.07,0.14-0.06,0.48-0.79,0.89
						c-0.73,0.42-4.24,2.35-8.56,2.64c-4.32,0.29-6.32-0.09-7.33-0.16c0,0-5.87-0.06-7.19-0.04c-1.32,0.02-6.56-0.14-7.25-0.35
						c-0.69-0.21-0.76-0.21-0.92-0.64c-0.16-0.43,0.03-2.3,0.15-2.58c0.13-0.28,0.18-0.55,0.18-0.55s0.59-3,1.07-4
						c0.48-1,1.08-2.37,1.2-3.62C229.85,156.29,229.83,154.25,229.83,154.25z"/>
					<path class="st17" d="M252.98,163.55c0,0,0-0.14,0.46-0.16c0.46-0.01,3-0.15,3.47-0.02c0.18,0.05,0.35,0.11,0.49,0.17
						c0,0,0.77,0.24-1.53,1.03c-2.29,0.79-2.67,0.66-2.67,0.66S252.79,164.53,252.98,163.55z"/>
					<path class="st17" d="M227.28,165.66c-0.13,0.29-0.31,2.15-0.15,2.58c0.16,0.43,0.23,0.44,0.92,0.64
						c0.69,0.21,5.93,0.37,7.25,0.35c1.32-0.02,7.19,0.04,7.19,0.04c1.01,0.07,3.01,0.45,7.33,0.16c4.32-0.29,7.83-2.23,8.56-2.64
						c0.73-0.41,0.86-0.75,0.79-0.89c-0.07-0.15-0.2-0.94-0.2-0.94c-0.2-0.75-0.93-1.24-0.93-1.24s0,0-0.14-0.07
						c-0.05-0.03-0.21,0.02-0.33-0.04c0,0-0.27,0.93-4.81,1.84c-4.55,0.91-4.68,1.29-8.99,1.22c-4.31-0.07-6.68-0.17-9.1-0.29
						c-2.42-0.12-6.24-0.54-6.67-0.65C227.57,165.62,227.28,165.66,227.28,165.66z"/>
					<path class="st18" d="M237.71,154.7c-0.01,0.32-0.23,0.57-0.51,0.57c-0.27-0.01-0.49-0.27-0.48-0.59
						c0.01-0.32,0.23-0.57,0.51-0.57C237.5,154.12,237.72,154.38,237.71,154.7z"/>
					<path class="st19" d="M238.86,156.72c-0.01,0.34-0.25,0.62-0.55,0.61c-0.3-0.01-0.53-0.29-0.52-0.63
						c0.01-0.34,0.25-0.61,0.55-0.61C238.64,156.1,238.87,156.38,238.86,156.72z"/>
					<path class="st19" d="M240.07,158.78c-0.01,0.34-0.25,0.62-0.55,0.61c-0.3-0.01-0.53-0.29-0.52-0.63
						c0.01-0.34,0.25-0.62,0.55-0.61C239.85,158.16,240.08,158.44,240.07,158.78z"/>
					<path class="st19" d="M241.68,160.51c-0.01,0.34-0.25,0.61-0.55,0.61c-0.3-0.01-0.53-0.29-0.52-0.63
						c0.01-0.34,0.25-0.61,0.55-0.61C241.45,159.88,241.68,160.16,241.68,160.51z"/>
					<path class="st20" d="M243.47,161.84c-0.01,0.29-0.23,0.52-0.51,0.52c-0.27-0.01-0.49-0.25-0.48-0.54
						c0.01-0.29,0.23-0.52,0.51-0.52C243.26,161.31,243.47,161.55,243.47,161.84z"/>
					<path class="st21" d="M245.72,162.7c-0.01,0.27-0.25,0.49-0.55,0.48c-0.3-0.01-0.53-0.23-0.53-0.51
						c0.01-0.27,0.25-0.49,0.55-0.48C245.49,162.2,245.72,162.43,245.72,162.7z"/>
					<path class="st21" d="M247.94,163.48c-0.01,0.28-0.25,0.49-0.55,0.49c-0.3-0.01-0.53-0.23-0.53-0.51
						c0.01-0.27,0.25-0.49,0.55-0.48C247.71,162.98,247.94,163.21,247.94,163.48z"/>
					<path class="st22" d="M250.16,163.92c-0.01,0.27-0.25,0.48-0.55,0.48c-0.3-0.01-0.53-0.23-0.53-0.5
						c0.01-0.27,0.25-0.48,0.55-0.48C249.93,163.42,250.17,163.65,250.16,163.92z"/>
					<path class="st23" d="M239.17,154.07c0,0-0.54-0.32-1.15-0.22c-0.6,0.11-1.19,0.68-1.21,0.84c-0.02,0.17,0.04,0.49,0.35,0.45
						c0.31-0.04,0.4-0.37,0.81-0.36c0.41,0.01,1.08-0.05,1.2-0.05c0.12,0,0.22,0.03,0.22,0.03l-0.38,0.63l0.34,0.52
						c0,0-0.55,0.24-0.78,0.3c-0.23,0.06-0.56,0.16-0.56,0.16s-0.21,0.26-0.07,0.59c0.14,0.33,0.44,0.26,0.44,0.26
						s0.75-0.27,1.08-0.32c0.33-0.06,0.91-0.06,0.91-0.06l-0.29,0.42l0.5,0.71c0,0-0.55,0.25-0.75,0.3
						c-0.2,0.05-0.65,0.19-0.68,0.25c-0.04,0.12-0.08,0.28-0.01,0.49c0.12,0.33,0.38,0.3,0.38,0.3s0.18-0.13,0.65-0.23
						c0.47-0.11,1.48-0.38,1.48-0.38l-0.24,0.34l0.52,0.51c0,0-0.5,0.27-0.67,0.4c-0.17,0.13-0.52,0.38-0.52,0.38
						s-0.11,0.21,0.01,0.47c0.1,0.23,0.38,0.24,0.38,0.24l0.39-0.27c0,0,0.64-0.32,0.88-0.4c0.25-0.08,0.25-0.14,0.25-0.14
						l0.31,0.06l0,0.17l0.69,0.43c0,0-0.49,0.3-0.59,0.38c-0.1,0.08-0.45,0.38-0.45,0.38s-0.15,0.38,0.13,0.59
						c0.16,0.12,0.39,0.02,0.39,0.02s0.19-0.15,0.48-0.33c0.19-0.12,0.79-0.53,1.01-0.56c0.22-0.03,0.36,0.02,0.36,0.02l0.03,0.17
						l0.61,0.28c0,0-0.56,0.43-0.7,0.55c-0.18,0.15-0.19,0.31-0.19,0.31s0,0.17,0.16,0.33c0.16,0.14,0.35,0.09,0.35,0.09
						s0.14-0.22,0.35-0.32c0.03-0.02,0.07-0.03,0.1-0.05c0.25-0.11,0.89-0.53,0.89-0.53l0.38,0.09l0.64,0.25l-0.3-0.49l0.74,0.22
						l0.37,0.3c0,0-0.43-0.04-0.65,0.05c-0.22,0.09-0.62,0.47-0.67,0.6c-0.05,0.13-0.02,0.31-0.02,0.31s0.02-0.07,0.16,0.02
						c0.15,0.09,0.23,0.2,0.23,0.2s0.2-0.03,0.37-0.17c0.17-0.15,0.61-0.5,0.72-0.6c0.12-0.1,0.22-0.11,0.22-0.11s0.2,0.1,0.35,0.11
						c0.15,0,0.35,0.09,0.35,0.09s-0.16,0.49-0.15,0.69c0.01,0.2,0.01,0.35,0.01,0.35s0.16,0.07,0.29,0.12
						c0.13,0.05,0.3-0.08,0.45-0.31c0.15-0.23,0.47-0.98,0.47-0.98s-0.67-0.3-0.79-0.22c-0.12,0.08-0.22,0.21-0.22,0.21l-0.32-0.31
						c0,0-0.88-0.42-1.18-0.51c-0.3-0.09-1.86-0.7-1.86-0.7l0.37,0.49l-0.69-0.18c0,0-0.06-0.3-0.17-0.42
						c-0.11-0.12-1.05-0.49-1.05-0.49l-0.83,0.02l-0.05-0.68c0,0-0.37-0.42-0.47-0.54c-0.1-0.12-0.24-0.22-0.24-0.22l-0.66-0.01
						l0.14-0.34c0,0-0.61-1.02-0.77-1.09c-0.16-0.07-0.28-0.11-0.28-0.11l-0.71,0.09l0.4-0.72c0,0-0.59-1.14-0.78-1.24
						c-0.2-0.1-0.51-0.14-0.51-0.14l0.11-0.33C239.97,155.49,239.82,154.28,239.17,154.07z"/>
					<path class="st13" d="M245.18,171.08c-0.26-0.01-0.46-0.01-0.6-0.02c-0.25-0.01-0.67-0.04-1.21-0.08
						c-1.21-0.09-3.04-0.22-4.36-0.24c-1.87-0.02-5.5,0.06-5.53,0.06c-5.17,0.04-6.35-0.92-6.41-0.96l-0.01-0.38
						c0.01,0.01,1.42,0.98,6.41,0.94c0.03,0,3.66-0.07,5.54-0.06c1.34,0.01,3.18,0.15,4.39,0.24c0.53,0.04,0.95,0.07,1.19,0.08
						c0.66,0.03,2.92,0.1,4.59-0.29l0.09,0.39C247.92,171.09,246.18,171.11,245.18,171.08z"/>
					<polygon points="249.18,169.44 248.8,166.36 249.2,166.25 249.57,169.39 					"/>
				</g>
			</g>
			<path class="st24" d="M179.08,92.97c0,0-3.6,20.63,11.72,20.06c15.31-0.57,33.41-1.83,33.41-1.83l9.97,42.22l10.85-2.32
				c0,0-4.07-43.47-5.29-46.62c-2.8-7.26-7.92-8.42-20.5-9.45c-3.53-0.29-8.22-1.86-13.17-2.12c-2.81-0.15-6.63-3.32-9.43-3.46
				C186.83,88.99,179.08,92.97,179.08,92.97z"/>
			<path class="st25" d="M174.8,95.87c0,0-3.6,20.63,11.72,20.06c15.31-0.57,33.41-1.83,33.41-1.83l9.97,42.22l10.85-2.32
				c0,0-4.61-43.31-5.29-46.62c-0.68-3.32-7.92-8.42-20.5-9.45c-5.84-0.47-13.87-2.94-21.92-3.31
				C183.75,94.19,174.8,95.87,174.8,95.87z"/>
		</g>
		<g>
			<path class="st26" d="M189.3,39.77c0,0-0.5,7.84,1.54,9.58l-2.34,0.67c-2.71,0.38-9.6,1.8-12.3,2.17c0,0,4.18-7.33,4.12-15.21
				l8.63,2.77"/>
			<path class="st27" d="M173.51,97.01c-3.87-13.91-2.03-34.44-0.9-39.67c1.33-6.14,6.35-10.88,6.35-10.88
				c2.33,5.28,9.33,3.77,10.87,1.18c15.78,6.91,11.99,46.78,11.99,46.78s-0.34,1.99-12.57,3.08
				C177.02,98.59,173.51,97.01,173.51,97.01z"/>
			<g>
				<path class="st28" d="M181.74,11.57c-1.95,1.48-6,3.23-5.8,7.81c-5.22-1.73-2.49,8.49-2.54,12.42
					c-0.02,1.74,1.81,4.55,4.53,6.64c5.2,4,15.63,5.86,20.52-7.93c2.89-8.16-0.62-17.14-4.25-19.35
					C189.37,8.22,181.76,11.56,181.74,11.57z"/>
				<path class="st16" d="M203.42,10.2c-0.02,0-1.84,1.32-2.85,0.38c0.61-0.83,1.48-1.23,0.63-3.64c-3.91,2.15-6.23-4.31-17.04-4.05
					c-15.98,0.38-15.58,16.76-15.68,18.41c-0.55,9.27,5.12,11.89,5.12,11.9c-0.01,0.02,2.92-9.11,2.95-9.15
					c0.01-0.01,0.01-0.02,0.01-0.04c-0.47-2.04-0.07-3.93,1.09-5.2c0.66-0.72,1.5-1.13,2.14-1.04c0.06,0.01,0.11,0.02,0.16,0.03
					c1.02,0.3,5.89,0.68,7.39-0.05c2.17-1.05,1.96-3.07,4.34-3.28c1.89-0.17,3.83,3.41,6.24,4.55
					C205.57,19.02,203.44,10.2,203.42,10.2z"/>
				<g>
					<path class="st28" d="M172.72,22.38c1.63-0.3,3.3,1.34,3.72,3.65c0.42,2.31-0.57,4.43-2.2,4.72c-1.63,0.3-3.3-1.34-3.72-3.65
						C170.1,24.79,171.08,22.68,172.72,22.38"/>
					<path class="st29" d="M172.39,23.74c0,0,1.99,0.3,2.29,2.98c-0.91-0.72-1.2,0.55-1.2,0.55s-0.27,1.12,0.3,1.36
						c0.57,0.23-1.03-0.59-1.03-0.59s0.38,1.52,1.75,1.14c1.38-0.37-0.01-0.59-0.01-0.59s-0.92,0.01-0.54-1.1
						c0.33-0.83,1.09,0.17,1.09,0.17S175.75,23.67,172.39,23.74"/>
				</g>
			</g>
			<g>
				<path class="st28" d="M215.19,98.24c0,0,0.62,2.38,4.27,3.66c3.65,1.28,5.6,1.51,6.81,2.18c0,0,0.74,0.64,1.98,1.36
					c1.24,0.72,2.58,1.37,3.29,1.32c0.72-0.05,0.87-0.09,0.6-0.63c-0.27-0.54-2.73-2.37-2.97-2.81c-0.24-0.44-0.36-0.84,0.41-0.32
					c0.77,0.52,1.82,1.36,2.69,2.12c0.87,0.77,1.78,1.96,2.33,1.46c0.55-0.51,0.65-1.09-0.03-1.99c-0.68-0.9-0.75-1.07-1.48-2.19
					c-0.73-1.13-1.7-2-1.7-2s0.02-0.41-0.87-1.46c-0.9-1.05-1.09-1.97-1.85-2.48c-0.77-0.52-1.6-0.85-3.17-1.27
					c-1.57-0.42-2.6-0.45-3.41-0.69c-0.81-0.24-1.91-0.77-1.91-0.77l-1.9,0.92l-2.43,1.95L215.19,98.24z"/>
				<path class="st31" d="M220.07,93.51l-2.07,7.44c0,0-2.51-0.2-8.65-2.83c-6.13-2.63-16.67-7.81-16.67-7.81
					c-1.66-1.13-5.04-6.27-5.04-6.27s-7.63-10.6-9.13-18.57c-1.06-5.62,4.92-12.06,10.44-2.79c0.31,0.52,10.61,21.02,10.61,21.02
					L220.07,93.51z"/>
				<path class="st23" d="M182.14,58.13c0,0,9.56,19.02,14.55,27.89l22.72,10.02l-0.52,1.87l-23.17-10.25
					c-0.06-0.01-0.11-0.03-0.16-0.05c-0.22-0.11-0.38-0.4-0.99-1.5c-0.4-0.71-0.96-1.73-1.65-2.96c-1.24-2.24-3.12-5.65-5.01-9.13
					c-6.2-11.46-7.44-14.53-7.47-14.91C180.78,58.76,181.47,58.29,182.14,58.13z"/>
			</g>
		</g>
		<g>
			<g>
				<line class="st32" x1="155.52" y1="61.72" x2="155.52" y2="20.77"/>
				<g>
					<polygon class="st5" points="161.45,25.26 155.52,22.74 149.6,25.26 155.52,11.22 					"/>
				</g>
			</g>
		</g>
	</g>
	<g id="_x30_1_BAD_POSTURE">
		<g>
			<path class="st15" d="M30.22,92.62c1.99-2.4,3.4-15.03,3.78-19.03l0.01-0.13l0.02-0.24c0.39-4,1.42-16.67-0.07-19.41
				c-1.9-3.49-5.7-3.52-7.79-2.69c-0.77,0.31-1.3,1.01-1.39,1.84l-3.74,38.72c-0.08,0.83,0.31,1.62,1.01,2.07
				C23.95,94.98,27.68,95.68,30.22,92.62z"/>
			<path class="st15" d="M73.79,112.31c-3.15-2.13-18.65-2.36-23.55-2.36l-0.16,0l-0.29,0c-4.9,0-20.4,0.23-23.55,2.36
				c-0.55,0.37-1.01,0.78-1.4,1.21c-8.37-3.45-14.29-11.69-14.29-21.29c0-9.27,5.52-17.6,14.06-21.21l-1.17-2.76
				c-9.65,4.08-15.89,13.5-15.89,23.98c0,10.72,6.51,19.94,15.79,23.92c-0.66,2.17-0.22,4.45,0.54,5.93c0.46,0.9,1.39,1.46,2.4,1.46
				h11.2l6.94,2.2h0.42v4.5c0,1.66,1.34,5.25,3,5.25h0.17v7.17h-1.17v7.26l-0.01-0.03c-0.08,0.02-8.37,1.96-13.65,3.32
				c-3.76,0.97-5.38,3.39-5.94,5.48c-1.67,0.61-2.88,2.21-2.88,4.09c0,2.42,1.96,4.38,4.38,4.38s4.38-1.96,4.38-4.38
				c0-1.65-0.93-3.07-2.28-3.82c0.41-0.89,1.31-1.87,3.23-2.36c4.28-1.11,10.59-2.6,12.78-3.12v4.42h1.17v3.75h4v-3.75h1.17v-4.42
				c2.19,0.52,8.49,2.01,12.78,3.12c1.92,0.5,2.81,1.48,3.23,2.36c-1.35,0.74-2.28,2.17-2.28,3.82c0,2.42,1.96,4.38,4.38,4.38
				s4.38-1.96,4.38-4.38c0-1.89-1.2-3.48-2.88-4.09c-0.57-2.08-2.19-4.5-5.94-5.48c-5.27-1.36-13.56-3.3-13.64-3.32l-0.01,0.03
				v-7.26h-1.17v-7.17h0.17c1.66,0,3-3.59,3-5.25v-4.6l6.93-2.1h11.63c1.02,0,1.94-0.56,2.4-1.46
				C77.39,119.65,77.8,115.03,73.79,112.31z"/>
		</g>
		<g>
			<g>
				<path class="st16" d="M91.41,147.99c-0.1-0.62-0.31-1.2-0.14-1.29c0.17-0.1,0.36,0,0.84,0.17c0.48,0.17,1.72,0.31,2.66,0.24
					c0.93-0.07,1.63-0.19,1.63-0.19s-0.17-1.48,0.69-2.13c0.86-0.65,1.51-1.03,1.51-1.03s1.25,2.28,1.53,2.9
					c0.29,0.62,2.55,4,3.13,4.86c0.57,0.86,2.24,2.44,3.99,3.11c1.75,0.67,4.12,1.37,4.93,1.56c0.81,0.19,2.59,0.5,2.59,0.5
					s0-0.04,0.45-0.07c0.46-0.02,2.99-0.21,3.47-0.1c0.18,0.05,0.35,0.1,0.5,0.16c0.23,0.09,0.4,0.08,0.49,0.12
					c0.14,0.07,0.14,0.07,0.14,0.07s0.74,0.48,0.96,1.22c0,0,0.14,0.79,0.22,0.93c0.07,0.14-0.05,0.48-0.77,0.91
					c-0.72,0.43-4.19,2.44-8.5,2.83c-4.31,0.38-6.32,0.05-7.33,0c0,0-5.87,0.07-7.18,0.12c-1.32,0.05-6.56,0-7.26-0.19
					c-0.69-0.19-0.77-0.19-0.93-0.62c-0.17-0.43-0.02-2.3,0.1-2.59c0.12-0.29,0.17-0.55,0.17-0.55s0.53-3.02,0.98-4.02
					c0.46-1.01,1.03-2.4,1.13-3.64C91.48,150.02,91.41,147.99,91.41,147.99z"/>
				<path class="st17" d="M114.76,156.78c0,0,0-0.14,0.45-0.17c0.46-0.02,2.99-0.21,3.47-0.1c0.18,0.05,0.35,0.1,0.5,0.16
					c0,0,0.77,0.23-1.5,1.07c-2.27,0.84-2.66,0.71-2.66,0.71S114.6,157.76,114.76,156.78z"/>
				<path class="st17" d="M89.11,159.45c-0.12,0.29-0.26,2.16-0.1,2.59c0.17,0.43,0.24,0.43,0.93,0.62c0.7,0.19,5.94,0.24,7.26,0.19
					c1.32-0.05,7.18-0.12,7.18-0.12c1.01,0.05,3.02,0.38,7.33,0c4.31-0.38,7.78-2.4,8.5-2.83c0.72-0.43,0.84-0.77,0.77-0.91
					c-0.07-0.14-0.22-0.93-0.22-0.93c-0.21-0.74-0.96-1.22-0.96-1.22s0,0-0.14-0.07c-0.06-0.03-0.21,0.02-0.33-0.03
					c0,0-0.25,0.94-4.77,1.94c-4.53,1.01-4.65,1.39-8.96,1.41c-4.31,0.02-6.68-0.02-9.1-0.1c-2.42-0.07-6.25-0.41-6.68-0.5
					C89.4,159.4,89.11,159.45,89.11,159.45z"/>
				<path class="st18" d="M99.31,148.26c0,0.32-0.22,0.58-0.5,0.58c-0.27,0-0.5-0.26-0.5-0.58c0-0.32,0.22-0.58,0.5-0.58
					C99.08,147.68,99.31,147.94,99.31,148.26z"/>
				<path class="st19" d="M100.5,150.26c0,0.34-0.24,0.62-0.54,0.62c-0.3,0-0.54-0.28-0.54-0.62c0-0.34,0.24-0.62,0.54-0.62
					C100.26,149.64,100.5,149.92,100.5,150.26z"/>
				<path class="st19" d="M101.75,152.29c0,0.34-0.24,0.62-0.54,0.62s-0.54-0.28-0.54-0.62c0-0.34,0.24-0.62,0.54-0.62
					S101.75,151.95,101.75,152.29z"/>
				<ellipse class="st19" cx="102.86" cy="153.98" rx="0.54" ry="0.62"/>
				<path class="st20" d="M105.21,155.28c0,0.29-0.22,0.53-0.5,0.53s-0.5-0.24-0.5-0.53c0-0.29,0.22-0.53,0.5-0.53
					S105.21,154.99,105.21,155.28z"/>
				<path class="st21" d="M107.48,156.09c0,0.27-0.24,0.5-0.54,0.5c-0.3,0-0.54-0.22-0.54-0.5c0-0.27,0.24-0.5,0.54-0.5
					C107.24,155.6,107.48,155.82,107.48,156.09z"/>
				<path class="st21" d="M109.72,156.82c0,0.28-0.24,0.5-0.54,0.5c-0.3,0-0.54-0.22-0.54-0.5c0-0.27,0.24-0.5,0.54-0.5
					C109.47,156.32,109.72,156.55,109.72,156.82z"/>
				<path class="st22" d="M111.95,157.21c0,0.27-0.24,0.49-0.54,0.49c-0.3,0-0.54-0.22-0.54-0.49c0-0.27,0.24-0.49,0.54-0.49
					C111.71,156.72,111.95,156.94,111.95,157.21z"/>
				<path class="st23" d="M100.75,147.6c0,0-0.55-0.31-1.15-0.19c-0.6,0.12-1.17,0.71-1.19,0.87c-0.02,0.17,0.05,0.49,0.36,0.44
					c0.31-0.05,0.39-0.38,0.8-0.38c0.41,0,1.08-0.07,1.2-0.07c0.12,0,0.22,0.02,0.22,0.02l-0.37,0.64l0.35,0.51
					c0,0-0.55,0.25-0.78,0.31c-0.23,0.07-0.55,0.17-0.55,0.17s-0.21,0.26-0.06,0.59c0.15,0.32,0.45,0.25,0.45,0.25
					s0.74-0.28,1.07-0.35c0.33-0.07,0.91-0.08,0.91-0.08l-0.28,0.43l0.51,0.7c0,0-0.55,0.26-0.74,0.31c-0.2,0.05-0.65,0.2-0.67,0.26
					c-0.04,0.12-0.08,0.28,0,0.49c0.12,0.32,0.39,0.29,0.39,0.29s0.18-0.13,0.65-0.25c0.46-0.12,1.47-0.41,1.47-0.41l-0.23,0.35
					l0.53,0.5c0,0-0.5,0.28-0.66,0.41c-0.16,0.13-0.51,0.39-0.51,0.39s-0.11,0.21,0.02,0.47c0.11,0.22,0.38,0.23,0.38,0.23
					l0.38-0.28c0,0,0.63-0.33,0.88-0.41c0.25-0.08,0.25-0.15,0.25-0.15l0.31,0.05v0.17l0.69,0.41c0,0-0.48,0.31-0.58,0.4
					c-0.1,0.08-0.44,0.39-0.44,0.39s-0.14,0.38,0.14,0.59c0.16,0.12,0.39,0.01,0.39,0.01s0.19-0.16,0.47-0.34
					c0.19-0.12,0.78-0.55,0.99-0.58c0.21-0.03,0.36,0.02,0.36,0.02l0.03,0.17l0.61,0.27c0,0-0.55,0.44-0.69,0.56
					c-0.17,0.16-0.18,0.32-0.18,0.32s0,0.17,0.17,0.32c0.17,0.13,0.36,0.08,0.36,0.08s0.14-0.22,0.35-0.32
					c0.03-0.02,0.07-0.03,0.1-0.05c0.25-0.12,0.88-0.55,0.88-0.55l0.38,0.08l0.65,0.23l-0.32-0.48l0.74,0.2l0.38,0.3
					c0,0-0.43-0.03-0.65,0.07c-0.21,0.1-0.61,0.48-0.66,0.61c-0.05,0.13-0.02,0.31-0.02,0.31s0.02-0.07,0.17,0.02
					c0.15,0.08,0.23,0.2,0.23,0.2s0.2-0.03,0.36-0.18c0.17-0.15,0.59-0.51,0.71-0.61c0.12-0.1,0.21-0.11,0.21-0.11s0.2,0.1,0.35,0.1
					c0.15,0,0.35,0.08,0.35,0.08s-0.15,0.5-0.13,0.69c0.02,0.2,0.02,0.35,0.02,0.35s0.17,0.07,0.3,0.12
					c0.13,0.05,0.3-0.08,0.45-0.31c0.15-0.23,0.45-0.99,0.45-0.99s-0.68-0.28-0.79-0.2c-0.12,0.08-0.21,0.22-0.21,0.22l-0.33-0.3
					c0,0-0.89-0.4-1.19-0.48c-0.3-0.08-1.87-0.66-1.87-0.66l0.38,0.48l-0.7-0.16c0,0-0.07-0.3-0.18-0.41
					c-0.12-0.12-1.06-0.46-1.06-0.46l-0.83,0.03l-0.07-0.68c0,0-0.38-0.41-0.48-0.53c-0.1-0.12-0.25-0.22-0.25-0.22h-0.66l0.13-0.35
					c0,0-0.63-1.01-0.79-1.08c-0.17-0.07-0.28-0.1-0.28-0.1l-0.71,0.1l0.38-0.73c0,0-0.61-1.12-0.81-1.23
					c-0.2-0.1-0.51-0.13-0.51-0.13l0.1-0.33C101.57,149.01,101.4,147.8,100.75,147.6z"/>
				<path class="st13" d="M107.13,164.48c-0.26,0-0.46,0-0.6-0.01c-0.25-0.01-0.67-0.03-1.21-0.06c-1.21-0.06-3.04-0.16-4.37-0.14
					c-1.87,0.02-5.49,0.18-5.53,0.18c-5.17,0.15-6.37-0.78-6.43-0.82l-0.02-0.38c0.01,0.01,1.44,0.95,6.43,0.8
					c0.03,0,3.66-0.15,5.54-0.18c1.34-0.02,3.18,0.08,4.39,0.14c0.53,0.03,0.95,0.05,1.2,0.06c0.66,0.02,2.92,0.04,4.58-0.39
					l0.1,0.39C109.87,164.42,108.12,164.48,107.13,164.48z"/>
				<polygon points="111.09,162.75 110.64,159.68 111.04,159.56 111.48,162.69 				"/>
			</g>
		</g>
		<g>
			<g>
				<path class="st16" d="M85.84,154.03c-0.1-0.62-0.31-1.2-0.14-1.29c0.17-0.1,0.36,0,0.84,0.17c0.48,0.17,1.72,0.31,2.66,0.24
					c0.93-0.07,1.63-0.19,1.63-0.19s-0.17-1.48,0.69-2.13c0.86-0.65,1.51-1.03,1.51-1.03s1.25,2.28,1.53,2.9
					c0.29,0.62,2.55,4,3.13,4.86c0.57,0.86,2.24,2.44,3.99,3.11c1.75,0.67,4.12,1.37,4.93,1.56c0.81,0.19,2.59,0.5,2.59,0.5
					s0-0.04,0.45-0.07c0.46-0.02,2.99-0.21,3.47-0.1c0.18,0.05,0.35,0.1,0.5,0.16c0.23,0.09,0.4,0.08,0.49,0.12
					c0.14,0.07,0.14,0.07,0.14,0.07s0.74,0.48,0.96,1.22c0,0,0.14,0.79,0.22,0.93c0.07,0.14-0.05,0.48-0.77,0.91
					c-0.72,0.43-4.19,2.44-8.5,2.83c-4.31,0.38-6.32,0.05-7.33,0c0,0-5.87,0.07-7.18,0.12c-1.32,0.05-6.56,0-7.26-0.19
					c-0.69-0.19-0.77-0.19-0.93-0.62c-0.17-0.43-0.02-2.3,0.1-2.59c0.12-0.29,0.17-0.55,0.17-0.55s0.53-3.02,0.98-4.02
					c0.46-1.01,1.03-2.4,1.13-3.64C85.92,156.06,85.84,154.03,85.84,154.03z"/>
				<path class="st17" d="M109.2,162.82c0,0,0-0.14,0.45-0.17c0.46-0.02,2.99-0.21,3.47-0.1c0.18,0.05,0.35,0.1,0.5,0.16
					c0,0,0.77,0.23-1.5,1.07c-2.27,0.84-2.66,0.71-2.66,0.71S109.03,163.8,109.2,162.82z"/>
				<path class="st17" d="M83.55,165.49c-0.12,0.29-0.26,2.16-0.1,2.59c0.17,0.43,0.24,0.43,0.93,0.62c0.7,0.19,5.94,0.24,7.26,0.19
					c1.32-0.05,7.18-0.12,7.18-0.12c1.01,0.05,3.02,0.38,7.33,0c4.31-0.38,7.78-2.4,8.5-2.83c0.72-0.43,0.84-0.77,0.77-0.91
					c-0.07-0.14-0.22-0.93-0.22-0.93c-0.21-0.74-0.96-1.22-0.96-1.22s0,0-0.14-0.07c-0.06-0.03-0.21,0.02-0.33-0.03
					c0,0-0.25,0.94-4.77,1.94c-4.53,1.01-4.65,1.39-8.96,1.41c-4.31,0.02-6.68-0.02-9.1-0.1c-2.42-0.07-6.25-0.41-6.68-0.5
					C83.83,165.44,83.55,165.49,83.55,165.49z"/>
				<path class="st18" d="M93.74,154.3c0,0.32-0.22,0.58-0.5,0.58c-0.27,0-0.5-0.26-0.5-0.58c0-0.32,0.22-0.58,0.5-0.58
					C93.52,153.73,93.74,153.98,93.74,154.3z"/>
				<path class="st19" d="M94.93,156.3c0,0.34-0.24,0.62-0.54,0.62c-0.3,0-0.54-0.28-0.54-0.62c0-0.34,0.24-0.62,0.54-0.62
					C94.69,155.68,94.93,155.96,94.93,156.3z"/>
				<path class="st19" d="M96.19,158.33c0,0.34-0.24,0.62-0.54,0.62c-0.3,0-0.54-0.28-0.54-0.62c0-0.34,0.24-0.62,0.54-0.62
					C95.95,157.71,96.19,157.99,96.19,158.33z"/>
				<path class="st19" d="M97.83,160.02c0,0.34-0.24,0.62-0.54,0.62c-0.3,0-0.54-0.28-0.54-0.62c0-0.34,0.24-0.62,0.54-0.62
					C97.59,159.4,97.83,159.68,97.83,160.02z"/>
				<path class="st20" d="M99.65,161.32c0,0.29-0.22,0.53-0.5,0.53c-0.27,0-0.5-0.24-0.5-0.53c0-0.29,0.22-0.53,0.5-0.53
					C99.43,160.79,99.65,161.03,99.65,161.32z"/>
				<path class="st21" d="M101.91,162.13c0,0.27-0.24,0.5-0.54,0.5c-0.3,0-0.54-0.22-0.54-0.5c0-0.27,0.24-0.5,0.54-0.5
					C101.67,161.64,101.91,161.86,101.91,162.13z"/>
				<path class="st21" d="M104.15,162.86c0,0.28-0.24,0.5-0.54,0.5c-0.3,0-0.54-0.22-0.54-0.5c0-0.27,0.24-0.5,0.54-0.5
					C103.91,162.36,104.15,162.59,104.15,162.86z"/>
				<path class="st22" d="M106.38,163.25c0,0.27-0.24,0.49-0.54,0.49c-0.3,0-0.54-0.22-0.54-0.49c0-0.27,0.24-0.49,0.54-0.49
					C106.14,162.76,106.38,162.98,106.38,163.25z"/>
				<path class="st23" d="M95.19,153.64c0,0-0.55-0.31-1.15-0.19c-0.6,0.12-1.17,0.71-1.19,0.87c-0.02,0.17,0.05,0.49,0.36,0.44
					c0.31-0.05,0.39-0.38,0.8-0.38c0.41,0,1.08-0.07,1.2-0.07c0.12,0,0.22,0.02,0.22,0.02l-0.37,0.64l0.35,0.51
					c0,0-0.55,0.25-0.78,0.31c-0.23,0.07-0.55,0.17-0.55,0.17s-0.21,0.26-0.06,0.59c0.15,0.32,0.45,0.25,0.45,0.25
					s0.74-0.28,1.07-0.35c0.33-0.07,0.91-0.08,0.91-0.08l-0.28,0.43l0.51,0.7c0,0-0.55,0.26-0.74,0.31c-0.2,0.05-0.65,0.2-0.67,0.26
					c-0.04,0.12-0.08,0.28,0,0.49c0.12,0.32,0.39,0.29,0.39,0.29s0.18-0.13,0.65-0.25c0.46-0.12,1.47-0.41,1.47-0.41l-0.23,0.35
					l0.53,0.5c0,0-0.5,0.28-0.66,0.41c-0.17,0.13-0.51,0.39-0.51,0.39s-0.11,0.21,0.02,0.47c0.11,0.22,0.38,0.23,0.38,0.23
					l0.38-0.28c0,0,0.63-0.33,0.88-0.41c0.25-0.08,0.25-0.15,0.25-0.15l0.31,0.05v0.17l0.69,0.41c0,0-0.48,0.31-0.58,0.4
					c-0.1,0.08-0.44,0.39-0.44,0.39s-0.14,0.38,0.14,0.59c0.16,0.12,0.39,0.01,0.39,0.01s0.19-0.16,0.47-0.34
					c0.19-0.12,0.78-0.55,0.99-0.58c0.21-0.03,0.36,0.02,0.36,0.02l0.03,0.17l0.61,0.27c0,0-0.55,0.44-0.69,0.56
					c-0.17,0.16-0.18,0.31-0.18,0.31s0,0.17,0.17,0.32c0.17,0.13,0.36,0.08,0.36,0.08s0.14-0.22,0.35-0.32
					c0.03-0.02,0.07-0.03,0.1-0.05c0.25-0.12,0.88-0.55,0.88-0.55l0.38,0.08l0.65,0.23l-0.32-0.48l0.74,0.2l0.38,0.3
					c0,0-0.43-0.03-0.65,0.07c-0.21,0.1-0.61,0.48-0.66,0.61c-0.05,0.13-0.02,0.31-0.02,0.31s0.02-0.07,0.17,0.02
					c0.15,0.08,0.23,0.2,0.23,0.2s0.2-0.03,0.36-0.18c0.17-0.15,0.59-0.51,0.71-0.61c0.12-0.1,0.21-0.11,0.21-0.11s0.2,0.1,0.35,0.1
					c0.15,0,0.35,0.08,0.35,0.08s-0.15,0.5-0.13,0.69c0.02,0.2,0.02,0.35,0.02,0.35s0.17,0.07,0.3,0.12
					c0.13,0.05,0.3-0.08,0.45-0.32c0.15-0.23,0.45-0.99,0.45-0.99s-0.68-0.28-0.79-0.2c-0.12,0.08-0.21,0.22-0.21,0.22l-0.33-0.3
					c0,0-0.89-0.4-1.19-0.48c-0.3-0.08-1.87-0.66-1.87-0.66l0.38,0.48l-0.7-0.16c0,0-0.07-0.3-0.18-0.41
					c-0.12-0.12-1.06-0.46-1.06-0.46l-0.83,0.03l-0.07-0.68c0,0-0.38-0.41-0.48-0.53c-0.1-0.12-0.25-0.22-0.25-0.22h-0.66l0.13-0.35
					c0,0-0.63-1.01-0.79-1.08c-0.17-0.07-0.28-0.1-0.28-0.1l-0.71,0.1l0.38-0.73c0,0-0.61-1.12-0.81-1.23
					c-0.2-0.1-0.51-0.13-0.51-0.13l0.1-0.33C96.01,155.05,95.84,153.84,95.19,153.64z"/>
				<path class="st13" d="M101.56,170.52c-0.26,0-0.46,0-0.6-0.01c-0.25-0.01-0.67-0.03-1.21-0.06c-1.21-0.06-3.04-0.16-4.37-0.14
					c-1.87,0.02-5.49,0.18-5.53,0.18c-5.17,0.15-6.37-0.78-6.43-0.82l-0.02-0.38c0.01,0.01,1.44,0.95,6.43,0.8
					c0.03,0,3.66-0.15,5.54-0.18c1.34-0.02,3.18,0.08,4.39,0.14c0.53,0.03,0.95,0.05,1.2,0.06c0.66,0.02,2.92,0.04,4.58-0.39
					l0.1,0.39C104.3,170.46,102.56,170.52,101.56,170.52z"/>
				<polygon points="105.52,168.79 105.08,165.72 105.47,165.6 105.91,168.73 				"/>
			</g>
		</g>
		<path class="st24" d="M33.79,93.85c0,0-3.15,20.7,12.15,19.8c15.3-0.9,33.37-2.55,33.37-2.55l10.88,42l10.8-2.55
			c0,0-5.01-43.37-6.3-46.5c-2.96-7.2-8.1-8.25-20.7-9c-4.43-0.26-11.09-1.9-17.38-2.09C45.01,92.63,33.79,93.85,33.79,93.85z"/>
		<path class="st25" d="M29.56,96.85c0,0-3.15,20.7,12.15,19.8c15.3-0.9,33.37-2.55,33.37-2.55l10.88,42l10.8-2.55
			c0,0-5.55-43.2-6.3-46.5c-0.75-3.3-8.1-8.25-20.7-9C57.16,97.3,29.56,96.85,29.56,96.85z"/>
		<path class="st26" d="M52.63,55.13c-1.23,0.03-3.52,0.08-5.53-0.78c-2.47-1.06-5.38-2.38-6.2-3.05c0,0,1.33-0.9,2.58-1.89
			c0.97-0.77,1.87-1.25,2.06-3.62c0.4-4.92,1.47-4.02,3.56-3.99c2.09,0.03,4.55,2.42,4.52,4.76c0,0-0.41,6.22,1.41,8.18L52.63,55.13
			z"/>
		<path class="st27" d="M29.38,98.71c-2.25-14.26,3.75-35.11,5.47-40.17c2.03-5.95,8.84-9.2,8.84-9.2c1.72,5.52,8.78,6.2,10,2.36
			c0.09-0.29,0.31-0.31,0.4-0.2C66,65.74,59.36,98.34,59.36,98.34s-6,1.62-16.25,1.88S29.38,98.71,29.38,98.71z"/>
		<g>
			<path class="st28" d="M58.5,20.04c-2.38,0.59-6.79,0.62-8.4,4.9c-4.12-3.65-5.63,6.83-7.22,10.42c-0.7,1.59-0.12,4.89,1.55,7.89
				c3.21,5.73,12.07,11.54,21.99,0.78c5.87-6.36,6.17-16.01,3.7-19.47C66.84,19.95,58.53,20.03,58.5,20.04z"/>
			<path class="st16" d="M78.98,27.3c-0.02-0.01-2.21,0.49-2.77-0.77c0.88-0.53,1.85-0.55,2.01-3.1
				c-4.44,0.44-4.03-6.41-14.07-10.43c-14.84-5.94-20.92,9.28-21.66,10.76c-4.15,8.31,0.04,12.95,0.02,12.96
				c-0.02,0.01,6.26-7.23,6.31-7.25c0.01-0.01,0.02-0.02,0.02-0.03c0.37-2.06,1.48-3.64,3.05-4.35c0.89-0.4,1.82-0.45,2.38-0.12
				c0.05,0.03,0.09,0.06,0.13,0.09c0.82,0.68,5.15,2.94,6.81,2.86c2.41-0.12,3.01-2.06,5.28-1.31c1.8,0.59,2.18,4.64,3.95,6.64
				C77.49,36.25,79,27.31,78.98,27.3z"/>
			<g>
				<path class="st28" d="M45.96,26.42c1.62,0.37,2.51,2.53,1.98,4.82c-0.53,2.29-2.26,3.85-3.88,3.48
					c-1.62-0.37-2.51-2.53-1.98-4.82C42.6,27.61,44.34,26.05,45.96,26.42"/>
				<path class="st29" d="M45.12,27.55c0,0,1.71,1.06,0.93,3.64c-0.55-1.02-1.32,0.03-1.32,0.03s-0.69,0.93-0.26,1.37
					c0.44,0.44-0.71-0.95-0.71-0.95s-0.25,1.54,1.16,1.74c1.41,0.2,0.22-0.54,0.22-0.54s-0.84-0.35-0.06-1.23
					c0.63-0.63,0.94,0.58,0.94,0.58S48.24,28.81,45.12,27.55"/>
			</g>
		</g>
		<path class="st28" d="M72.41,98.55c0,0,0.46,2.42,4.02,3.94c3.56,1.53,5.49,1.88,6.65,2.64c0,0,0.69,0.69,1.88,1.49
			c1.19,0.8,2.48,1.54,3.19,1.54c0.72,0,0.87-0.03,0.64-0.59c-0.23-0.56-2.57-2.55-2.78-3c-0.21-0.46-0.3-0.86,0.43-0.3
			c0.73,0.57,1.72,1.48,2.54,2.3c0.82,0.83,1.65,2.08,2.23,1.61c0.58-0.47,0.72-1.05,0.1-1.99c-0.62-0.94-0.68-1.12-1.33-2.29
			c-0.65-1.17-1.56-2.11-1.56-2.11s0.05-0.4-0.77-1.52c-0.82-1.11-0.95-2.03-1.68-2.6c-0.73-0.57-1.54-0.96-3.08-1.48
			c-1.54-0.53-2.56-0.62-3.35-0.92c-0.79-0.3-1.86-0.9-1.86-0.9l-1.96,0.79l-2.55,1.78L72.41,98.55z"/>
		<path class="st31" d="M77.6,94.16l-2.56,7.28c0,0-2.49-0.37-8.44-3.41c-5.94-3.04-16.11-8.92-16.11-8.92
			c-1.58-1.24-4.61-6.6-4.61-6.6s-6.9-11.09-7.86-19.14c-0.68-5.68,5.72-11.7,10.6-2.08c0.27,0.54,9.17,21.69,9.17,21.69L77.6,94.16
			z"/>
		<path class="st23" d="M42.14,56.3c0,0,8.26,19.62,12.64,28.81l21.99,11.53l-0.64,1.83L53.7,86.68c-0.06-0.02-0.11-0.04-0.16-0.06
			c-0.21-0.12-0.35-0.43-0.89-1.57c-0.35-0.74-0.85-1.79-1.44-3.06c-1.09-2.32-2.73-5.85-4.38-9.45c-5.42-11.85-6.44-15-6.45-15.38
			C40.74,56.84,41.46,56.41,42.14,56.3z"/>
		<g>
			<g>
				<path class="st33" d="M7.36,64.67c0,0-8.05-33.93,21.21-41.34"/>
				<g>
					<polygon class="st10" points="25.11,30.08 26.65,23.83 23.22,18.38 38.03,21.99 					"/>
				</g>
			</g>
		</g>
	</g>
</g>
</svg>
