<?xml version="1.0" encoding="utf-8"?>
<!-- Generator: Adobe Illustrator 26.0.2, SVG Export Plug-In . SVG Version: 6.00 Build 0)  -->
<svg version="1.1" xmlns="http://www.w3.org/2000/svg" xmlns:xlink="http://www.w3.org/1999/xlink" x="0px" y="0px"
	 viewBox="0 0 23.71 35.88" style="enable-background:new 0 0 23.71 35.88;" xml:space="preserve">
<style type="text/css">
	.st0{fill:#457CBE;}
	.st1{display:none;fill:#457CBE;}
	.st2{display:none;opacity:0.4;fill:#FFFFFF;}
	.st3{display:none;fill:none;stroke:#FFFFFF;stroke-width:1.3711;stroke-miterlimit:10;}
	.st4{fill:#4D4D4D;}
	.st5{fill:#0FB300;}
	.st6{fill:#EF9221;}
	.st7{fill:#FDCE94;}
	.st8{fill:#D32D27;}
	.st9{fill:#F09320;}
	.st10{fill:#D52B1E;}
	.st11{fill:#B871C9;}
	.st12{fill:#407CC9;}
	.st13{display:none;}
	.st14{display:inline;opacity:0.3;fill:#231F20;}
	.st15{fill:#BDB7B0;}
	.st16{fill:#231F20;}
	.st17{fill:#EBEBEB;stroke:#DEDEDE;stroke-width:0.1324;stroke-miterlimit:10;}
	.st18{fill:none;stroke:#919191;stroke-width:0.1986;stroke-miterlimit:10;}
	.st19{fill:none;stroke:#919191;stroke-width:0.2139;stroke-miterlimit:10;}
	.st20{fill:none;stroke:#919191;stroke-width:0.1899;stroke-miterlimit:10;}
	.st21{fill:none;stroke:#919191;stroke-width:0.1914;stroke-miterlimit:10;}
	.st22{fill:none;stroke:#919191;stroke-width:0.1898;stroke-miterlimit:10;}
	.st23{fill:#FFFFFF;}
	.st24{fill:#3B3B3B;}
	.st25{fill:#5C5C5C;}
	.st26{fill:#DBA591;}
	.st27{fill:#008DC4;}
	.st28{fill:#E6B19C;}
	.st29{fill:#DBA18A;}
	.st30{fill:#301B1A;}
	.st31{fill:#009FDE;}
	.st32{fill:none;stroke:#0FB300;stroke-width:4;stroke-miterlimit:10;}
	.st33{fill:none;stroke:#D52B1E;stroke-width:4;stroke-miterlimit:10;}
	.st34{fill:#FFECD4;}
	.st35{fill:#FFE8E8;}
	.st36{opacity:0.4;}
	.st37{fill-rule:evenodd;clip-rule:evenodd;fill:#61B85A;}
	.st38{fill-rule:evenodd;clip-rule:evenodd;fill:#F7D945;}
	.st39{fill-rule:evenodd;clip-rule:evenodd;fill:#FF5445;}
	.st40{fill-rule:evenodd;clip-rule:evenodd;fill:#EB6154;}
	.st41{opacity:0.21;}
	.st42{fill:url(#SVGID_1_);}
	.st43{opacity:0.5;}
	.st44{fill:url(#SVGID_00000070079782053600219520000015195926368063920017_);}
	.st45{fill:url(#SVGID_00000062878176683934859490000012157279553789814708_);}
</style>
<g id="FINAL_ICONS_ON_ARTBOARDS">
	<g id="UNPAIR_BLUETOOTH">
	</g>
	<g id="VIEW_RECENT_ERRORS">
	</g>
	<g id="PAST_RESULTS">
	</g>
	<g id="QUALITY_CONTROL_1_">
	</g>
	<g id="TRASH_CAN_1_">
	</g>
	<g id="_x30_4_QC_EXP.">
		<g>
			<g>
				<path class="st4" d="M5.67,7.6h6.18c0,0,0,0,0,0c0,0,0,0,0,0h6.18c0.46,0,0.83-0.3,0.83-0.66V6.75h0V5.87
					c0-1.44-0.49-2.62-2.25-2.75V3.11h-1.66c0,0,0,0,0,0c0-1.71-1.39-3.1-3.1-3.1c-1.71,0-3.1,1.39-3.1,3.1c0,0,0,0,0,0H7.49v0.01
					C6.2,3.21,5.62,3.86,5.12,4.76C4.94,5.1,4.84,5.47,4.84,5.87V6.2v0.56v0.18C4.84,7.3,5.21,7.6,5.67,7.6z M11.87,1.57
					c0.66,0,1.19,0.53,1.19,1.19c0,0.66-0.53,1.19-1.19,1.19c-0.66,0-1.19-0.53-1.19-1.19C10.68,2.1,11.21,1.57,11.87,1.57z"/>
				<path class="st4" d="M22.66,4.68h-2.94c0.19,0.34,0.29,0.79,0.29,1.18v0.32h2.2v28.2H1.5V6.18h2.24V5.87
					c0-0.39,0.1-0.84,0.29-1.18H1.05C0.47,4.68,0,5.14,0,5.71v29.15c0,0.56,0.47,1.02,1.05,1.02h21.61c0.21,0,0.38-0.06,0.5-0.11
					c0.32-0.09,0.55-0.38,0.55-0.72V5.89C23.71,5.06,23.16,4.68,22.66,4.68z"/>
			</g>
		</g>
	</g>
	<g id="_x30_3_QC_EXP.">
	</g>
	<g id="_x30_2_QC_EXP.">
	</g>
	<g id="_x30_1_QC_EXP.">
	</g>
	<g id="_x30_3B_DEVICE_EXP.">
	</g>
	<g id="_x30_3A_DEVICE_EXP.">
	</g>
	<g id="_x30_2_DEVICE_EXP.">
	</g>
	<g id="_x30_1_DEVICE_EXP.">
	</g>
	<g id="_x30_4C_BATTERY">
	</g>
	<g id="_x30_4B_BATTERY">
	</g>
	<g id="_x30_4A_BATTERY">
	</g>
	<g id="_x30_3C_BATTERY">
	</g>
	<g id="_x30_3B_BATTERY">
	</g>
	<g id="_x30_3A_BATTERY">
	</g>
	<g id="_x30_2_BATTERY">
	</g>
	<g id="_x30_1_BATTERY">
	</g>
	<g id="SHORT">
	</g>
	<g id="STANDARD">
	</g>
	<g id="_x30_0" class="st13">
		<rect x="-262.21" y="35.41" class="st14" width="645.32" height="19.68"/>
	</g>
</g>
<g id="POSTURE_ILLOS">
	<g id="_x30_2_GOOD_POSTURE">
	</g>
	<g id="_x30_1_BAD_POSTURE">
	</g>
</g>
</svg>
