<?xml version="1.0" encoding="utf-8"?>
<!-- Generator: Adobe Illustrator 26.0.2, SVG Export Plug-In . SVG Version: 6.00 Build 0)  -->
<svg version="1.1" xmlns="http://www.w3.org/2000/svg" xmlns:xlink="http://www.w3.org/1999/xlink" x="0px" y="0px"
	 viewBox="0 0 977.95 481.1" style="enable-background:new 0 0 977.95 481.1;" xml:space="preserve">
<style type="text/css">
	.st0{fill:#457CBE;}
	.st1{display:none;fill:#457CBE;}
	.st2{display:none;opacity:0.4;fill:#FFFFFF;}
	.st3{display:none;fill:none;stroke:#FFFFFF;stroke-width:1.3711;stroke-miterlimit:10;}
	.st4{fill:#4D4D4D;}
	.st5{fill:#0FB300;}
	.st6{fill:#EF9221;}
	.st7{fill:#FDCE94;}
	.st8{fill:#D32D27;}
	.st9{fill:#F09320;}
	.st10{fill:#D52B1E;}
	.st11{fill:#B871C9;}
	.st12{fill:#407CC9;}
	.st13{display:none;}
	.st14{display:inline;opacity:0.3;fill:#231F20;}
	.st15{fill:#BDB7B0;}
	.st16{fill:#231F20;}
	.st17{fill:#EBEBEB;stroke:#DEDEDE;stroke-width:0.1324;stroke-miterlimit:10;}
	.st18{fill:none;stroke:#919191;stroke-width:0.1986;stroke-miterlimit:10;}
	.st19{fill:none;stroke:#919191;stroke-width:0.2139;stroke-miterlimit:10;}
	.st20{fill:none;stroke:#919191;stroke-width:0.1899;stroke-miterlimit:10;}
	.st21{fill:none;stroke:#919191;stroke-width:0.1914;stroke-miterlimit:10;}
	.st22{fill:none;stroke:#919191;stroke-width:0.1898;stroke-miterlimit:10;}
	.st23{fill:#FFFFFF;}
	.st24{fill:#3B3B3B;}
	.st25{fill:#5C5C5C;}
	.st26{fill:#DBA591;}
	.st27{fill:#008DC4;}
	.st28{fill:#E6B19C;}
	.st29{fill:#DBA18A;}
	.st30{fill:#301B1A;}
	.st31{fill:#009FDE;}
	.st32{fill:none;stroke:#0FB300;stroke-width:4;stroke-miterlimit:10;}
	.st33{fill:none;stroke:#D52B1E;stroke-width:4;stroke-miterlimit:10;}
	.st34{fill:#FFECD4;}
	.st35{fill:#FFE8E8;}
	.st36{opacity:0.4;}
	.st37{fill-rule:evenodd;clip-rule:evenodd;fill:#61B85A;}
	.st38{fill-rule:evenodd;clip-rule:evenodd;fill:#F7D945;}
	.st39{fill-rule:evenodd;clip-rule:evenodd;fill:#FF5445;}
	.st40{fill-rule:evenodd;clip-rule:evenodd;fill:#EB6154;}
	.st41{opacity:0.21;}
	.st42{fill:url(#SVGID_1_);}
	.st43{opacity:0.5;}
	.st44{fill:url(#SVGID_00000145046424444283700730000010920067599640475271_);}
	.st45{fill:url(#SVGID_00000039122195586331209250000010348412336804028606_);}
</style>
<g id="FINAL_ICONS_ON_ARTBOARDS">
	<g id="UNPAIR_BLUETOOTH">
	</g>
	<g id="VIEW_RECENT_ERRORS">
	</g>
	<g id="PAST_RESULTS">
	</g>
	<g id="QUALITY_CONTROL_1_">
	</g>
	<g id="TRASH_CAN_1_">
	</g>
	<g id="_x30_4_QC_EXP.">
	</g>
	<g id="_x30_3_QC_EXP.">
	</g>
	<g id="_x30_2_QC_EXP.">
	</g>
	<g id="_x30_1_QC_EXP.">
	</g>
	<g id="_x30_3B_DEVICE_EXP.">
	</g>
	<g id="_x30_3A_DEVICE_EXP.">
	</g>
	<g id="_x30_2_DEVICE_EXP.">
	</g>
	<g id="_x30_1_DEVICE_EXP.">
	</g>
	<g id="_x30_4C_BATTERY">
	</g>
	<g id="_x30_4B_BATTERY">
	</g>
	<g id="_x30_4A_BATTERY">
	</g>
	<g id="_x30_3C_BATTERY">
	</g>
	<g id="_x30_3B_BATTERY">
	</g>
	<g id="_x30_3A_BATTERY">
	</g>
	<g id="_x30_2_BATTERY">
	</g>
	<g id="_x30_1_BATTERY">
	</g>
	<g id="SHORT">
	</g>
	<g id="STANDARD">
	</g>
	<g id="_x30_0" class="st13">
	</g>
</g>
<g id="POSTURE_ILLOS">
	<g id="_x30_2_GOOD_POSTURE">
	</g>
	<g id="_x30_1_BAD_POSTURE">
	</g>
	<g>
		<g class="st43">
			<path class="st23" d="M240.6,140.41c14.92,0,27.01-12.1,27.01-27c0-14.92-27.01-46.13-27.01-46.13s-27.01,31.21-27.01,46.13
				C213.59,128.31,225.68,140.41,240.6,140.41"/>
			<path class="st23" d="M225.53,29.77c0.69-15.73-11.48-29.04-27.21-29.74c-15.72-0.69-29.04,11.48-29.73,27.2
				c-0.69,15.73,25.71,63.35,25.71,63.35S224.83,45.49,225.53,29.77"/>
			<path class="st23" d="M312.46,27.24c-0.7-15.73-14.01-27.9-29.74-27.2c-15.72,0.69-27.9,14.01-27.2,29.73
				c0.7,15.73,31.23,60.82,31.23,60.82S313.16,42.96,312.46,27.24"/>
			<path class="st23" d="M349.59,169.79c10.54-10.55,13.51-51.71,13.51-51.71s-41.16,2.96-51.71,13.52
				c-10.55,10.55-10.55,27.64,0,38.19C321.94,180.34,339.04,180.34,349.59,169.79"/>
			<path class="st23" d="M380.76,40.64c-10.63-11.61-28.65-12.41-40.27-1.79c-11.6,10.63-26.61,62.97-26.61,62.97
				s53.47-10.3,65.09-20.92C390.58,70.28,391.38,52.25,380.76,40.64"/>
			<path class="st23" d="M442.23,140.58c10.62-11.61,9.82-29.64-1.79-40.26c-11.62-10.62-29.64-9.82-40.27,1.8
				c-10.62,11.6-20.93,65.08-20.93,65.08S431.6,152.19,442.23,140.58"/>
			<path class="st23" d="M413.8,240.63c0,0-31.21-27.01-46.13-27.01c-14.92,0-27,12.09-27,27.01c0,14.92,12.09,27.01,27,27.01
				C382.59,267.64,413.8,240.63,413.8,240.63"/>
			<path class="st23" d="M451.31,225.55c15.73,0.7,29.04-11.48,29.74-27.2c0.69-15.72-11.48-29.04-27.21-29.73
				c-15.72-0.7-63.35,25.71-63.35,25.71S435.59,224.86,451.31,225.55"/>
			<path class="st23" d="M451.31,255.55c-15.72,0.69-60.82,31.23-60.82,31.23s47.62,26.41,63.35,25.71
				c15.73-0.7,27.9-14.01,27.21-29.73C480.35,267.03,467.04,254.86,451.31,255.55"/>
			<path class="st23" d="M311.28,349.61c10.55,10.55,51.71,13.51,51.71,13.51s-2.96-41.16-13.52-51.71
				c-10.55-10.55-27.65-10.55-38.19,0C300.73,321.97,300.73,339.07,311.28,349.61"/>
			<path class="st23" d="M379.25,313.91c0,0,10.3,53.48,20.93,65.09c10.63,11.61,28.65,12.41,40.26,1.79
				c11.61-10.62,12.41-28.65,1.8-40.26C431.61,328.91,379.25,313.91,379.25,313.91"/>
			<path class="st23" d="M313.88,379.28c0,0,15,52.35,26.61,62.98c11.62,10.62,29.64,9.82,40.27-1.79
				c10.62-11.61,9.82-29.63-1.79-40.26C367.36,389.58,313.88,379.28,313.88,379.28"/>
			<path class="st23" d="M240.45,340.69c-14.92,0-27.01,12.1-27.01,27.01c0,14.92,27.01,46.12,27.01,46.12s27.01-31.2,27.01-46.12
				C267.45,352.79,255.36,340.69,240.45,340.69"/>
			<path class="st23" d="M255.52,451.34c-0.7,15.72,11.48,29.04,27.2,29.73c15.73,0.7,29.04-11.48,29.74-27.2
				c0.7-15.72-25.71-63.35-25.71-63.35S256.22,435.61,255.52,451.34"/>
			<path class="st23" d="M168.59,453.87c0.69,15.72,14.01,27.9,29.73,27.2c15.73-0.7,27.9-14.01,27.21-29.74
				c-0.7-15.72-31.23-60.82-31.23-60.82S167.89,438.14,168.59,453.87"/>
			<path class="st23" d="M169.66,311.31c-10.55-10.55-27.64-10.55-38.19,0c-10.56,10.55-13.52,51.71-13.52,51.71
				s41.17-2.96,51.71-13.52C180.2,338.96,180.2,321.85,169.66,311.31"/>
			<path class="st23" d="M100.29,440.47c10.63,11.61,28.65,12.41,40.27,1.78c11.6-10.62,26.61-62.97,26.61-62.97
				s-53.48,10.3-65.09,20.92C90.46,410.83,89.67,428.85,100.29,440.47"/>
			<path class="st23" d="M38.82,340.52c-10.62,11.62-9.83,29.64,1.79,40.26c11.61,10.62,29.64,9.82,40.26-1.79
				c10.63-11.6,20.93-65.08,20.93-65.08S49.45,328.91,38.82,340.52"/>
			<path class="st23" d="M140.38,240.48c0-14.92-12.1-27.01-27.01-27.01c-14.92,0-46.12,27.01-46.12,27.01s31.2,27.01,46.12,27.01
				C128.29,267.48,140.38,255.39,140.38,240.48"/>
			<path class="st23" d="M29.74,255.55C14.01,254.86,0.7,267.03,0,282.75c-0.7,15.73,11.48,29.04,27.2,29.73
				c15.73,0.7,63.35-25.71,63.35-25.71S45.46,256.24,29.74,255.55"/>
			<path class="st23" d="M29.74,225.55c15.72-0.69,60.82-31.23,60.82-31.23s-47.63-26.41-63.35-25.71
				C11.48,169.31-0.7,182.63,0,198.35C0.7,214.08,14.01,226.25,29.74,225.55"/>
			<path class="st23" d="M169.77,131.49c-10.54-10.55-51.71-13.51-51.71-13.51s2.96,41.16,13.52,51.7
				c10.55,10.55,27.65,10.55,38.19,0C180.31,159.14,180.31,142.04,169.77,131.49"/>
			<path class="st23" d="M101.79,167.19c0,0-10.3-53.47-20.93-65.09c-10.62-11.61-28.65-12.4-40.25-1.79
				c-11.62,10.63-12.41,28.65-1.79,40.27C49.44,152.19,101.79,167.19,101.79,167.19"/>
			<path class="st23" d="M167.16,101.82c0,0-15-52.35-26.61-62.98c-11.62-10.62-29.64-9.82-40.27,1.8
				c-10.62,11.6-9.82,29.63,1.79,40.25C113.69,91.52,167.16,101.82,167.16,101.82"/>
		</g>
		<g class="st43">
			<path class="st23" d="M737.48,140.41c14.92,0,27.01-12.1,27.01-27c0-14.92-27.01-46.13-27.01-46.13s-27.01,31.21-27.01,46.13
				C710.47,128.31,722.56,140.41,737.48,140.41"/>
			<path class="st23" d="M722.4,29.77c0.7-15.73-11.48-29.04-27.21-29.74c-15.72-0.69-29.04,11.48-29.73,27.2
				c-0.7,15.73,25.71,63.35,25.71,63.35S721.71,45.49,722.4,29.77"/>
			<path class="st23" d="M809.34,27.24c-0.7-15.73-14.01-27.9-29.74-27.2c-15.72,0.69-27.9,14.01-27.2,29.73
				c0.69,15.73,31.23,60.82,31.23,60.82S810.03,42.96,809.34,27.24"/>
			<path class="st23" d="M846.46,169.79c10.55-10.55,13.51-51.71,13.51-51.71s-41.16,2.96-51.7,13.52
				c-10.55,10.55-10.55,27.64,0,38.19C818.82,180.34,835.92,180.34,846.46,169.79"/>
			<path class="st23" d="M877.63,40.64c-10.63-11.61-28.65-12.41-40.27-1.79c-11.6,10.63-26.61,62.97-26.61,62.97
				s53.47-10.3,65.09-20.92C887.46,70.28,888.26,52.25,877.63,40.64"/>
			<path class="st23" d="M939.11,140.58c10.62-11.61,9.83-29.64-1.79-40.26c-11.62-10.62-29.64-9.82-40.27,1.8
				c-10.62,11.6-20.93,65.08-20.93,65.08S928.48,152.19,939.11,140.58"/>
			<path class="st23" d="M910.68,240.63c0,0-31.21-27.01-46.13-27.01c-14.92,0-27,12.09-27,27.01c0,14.92,12.09,27.01,27,27.01
				C879.47,267.64,910.68,240.63,910.68,240.63"/>
			<path class="st23" d="M948.19,225.55c15.73,0.7,29.04-11.48,29.74-27.2c0.7-15.72-11.48-29.04-27.21-29.73
				c-15.72-0.7-63.35,25.71-63.35,25.71S932.47,224.86,948.19,225.55"/>
			<path class="st23" d="M948.19,255.55c-15.72,0.69-60.82,31.23-60.82,31.23s47.62,26.41,63.35,25.71
				c15.73-0.7,27.9-14.01,27.21-29.73C977.23,267.03,963.92,254.86,948.19,255.55"/>
			<path class="st23" d="M808.16,349.61c10.55,10.55,51.71,13.51,51.71,13.51s-2.97-41.16-13.52-51.71
				c-10.55-10.55-27.65-10.55-38.2,0C797.61,321.97,797.61,339.07,808.16,349.61"/>
			<path class="st23" d="M876.13,313.91c0,0,10.3,53.48,20.93,65.09c10.63,11.61,28.65,12.41,40.26,1.79
				c11.61-10.62,12.41-28.65,1.79-40.26C928.48,328.91,876.13,313.91,876.13,313.91"/>
			<path class="st23" d="M810.76,379.28c0,0,15,52.35,26.61,62.98c11.62,10.62,29.64,9.82,40.27-1.79
				c10.62-11.61,9.82-29.63-1.79-40.26C864.24,389.58,810.76,379.28,810.76,379.28"/>
			<path class="st23" d="M737.32,340.69c-14.92,0-27,12.1-27,27.01c0,14.92,27,46.12,27,46.12s27.01-31.2,27.01-46.12
				C764.33,352.79,752.24,340.69,737.32,340.69"/>
			<path class="st23" d="M752.4,451.34c-0.69,15.72,11.48,29.04,27.2,29.73c15.73,0.7,29.04-11.48,29.74-27.2
				c0.7-15.72-25.71-63.35-25.71-63.35S753.09,435.61,752.4,451.34"/>
			<path class="st23" d="M665.46,453.87c0.7,15.72,14.01,27.9,29.73,27.2c15.73-0.7,27.9-14.01,27.21-29.74
				c-0.7-15.72-31.23-60.82-31.23-60.82S664.77,438.14,665.46,453.87"/>
			<path class="st23" d="M666.53,311.31c-10.55-10.55-27.64-10.55-38.19,0c-10.56,10.55-13.52,51.71-13.52,51.71
				s41.17-2.96,51.71-13.52C677.08,338.96,677.08,321.85,666.53,311.31"/>
			<path class="st23" d="M597.17,440.47c10.63,11.61,28.65,12.41,40.27,1.78c11.6-10.62,26.61-62.97,26.61-62.97
				s-53.48,10.3-65.09,20.92C587.34,410.83,586.54,428.85,597.17,440.47"/>
			<path class="st23" d="M535.7,340.52c-10.62,11.62-9.83,29.64,1.79,40.26c11.61,10.62,29.64,9.82,40.26-1.79
				c10.63-11.6,20.93-65.08,20.93-65.08S546.32,328.91,535.7,340.52"/>
			<path class="st23" d="M637.26,240.48c0-14.92-12.1-27.01-27.01-27.01c-14.92,0-46.12,27.01-46.12,27.01s31.2,27.01,46.12,27.01
				C625.16,267.48,637.26,255.39,637.26,240.48"/>
			<path class="st23" d="M526.61,255.55c-15.73-0.69-29.04,11.48-29.74,27.2c-0.7,15.73,11.48,29.04,27.2,29.73
				c15.73,0.7,63.35-25.71,63.35-25.71S542.34,256.24,526.61,255.55"/>
			<path class="st23" d="M526.61,225.55c15.72-0.69,60.82-31.23,60.82-31.23s-47.62-26.41-63.35-25.71
				c-15.72,0.69-27.9,14.01-27.2,29.73C497.57,214.08,510.89,226.25,526.61,225.55"/>
			<path class="st23" d="M666.65,131.49c-10.55-10.55-51.71-13.51-51.71-13.51s2.96,41.16,13.52,51.7
				c10.54,10.55,27.65,10.55,38.19,0C677.19,159.14,677.19,142.04,666.65,131.49"/>
			<path class="st23" d="M598.67,167.19c0,0-10.3-53.47-20.93-65.09c-10.62-11.61-28.65-12.4-40.26-1.79
				c-11.62,10.63-12.41,28.65-1.79,40.27C546.32,152.19,598.67,167.19,598.67,167.19"/>
			<path class="st23" d="M664.04,101.82c0,0-15-52.35-26.61-62.98c-11.62-10.62-29.64-9.82-40.27,1.8
				c-10.62,11.6-9.82,29.63,1.79,40.25C610.57,91.52,664.04,101.82,664.04,101.82"/>
		</g>
	</g>
</g>
</svg>
