<?xml version="1.0" encoding="utf-8"?>
<!-- Generator: Adobe Illustrator 26.0.2, SVG Export Plug-In . SVG Version: 6.00 Build 0)  -->
<svg version="1.1" xmlns="http://www.w3.org/2000/svg" xmlns:xlink="http://www.w3.org/1999/xlink" x="0px" y="0px"
	 viewBox="0 0 21.5 35.7" style="enable-background:new 0 0 21.5 35.7;" xml:space="preserve">
<style type="text/css">
	.st0{fill:#457CBE;}
	.st1{display:none;fill:#457CBE;}
	.st2{display:none;opacity:0.4;fill:#FFFFFF;}
	.st3{display:none;fill:none;stroke:#FFFFFF;stroke-width:1.3711;stroke-miterlimit:10;}
	.st4{fill:#4D4D4D;}
	.st5{fill:#0FB300;}
	.st6{fill:#EF9221;}
	.st7{fill:#FDCE94;}
	.st8{fill:#D32D27;}
	.st9{fill:#F09320;}
	.st10{fill:#D52B1E;}
	.st11{fill:#B871C9;}
	.st12{fill:#407CC9;}
	.st13{display:none;}
	.st14{display:inline;opacity:0.3;fill:#231F20;}
	.st15{fill:#BDB7B0;}
	.st16{fill:#231F20;}
	.st17{fill:#EBEBEB;stroke:#DEDEDE;stroke-width:0.1324;stroke-miterlimit:10;}
	.st18{fill:none;stroke:#919191;stroke-width:0.1986;stroke-miterlimit:10;}
	.st19{fill:none;stroke:#919191;stroke-width:0.2139;stroke-miterlimit:10;}
	.st20{fill:none;stroke:#919191;stroke-width:0.1899;stroke-miterlimit:10;}
	.st21{fill:none;stroke:#919191;stroke-width:0.1914;stroke-miterlimit:10;}
	.st22{fill:none;stroke:#919191;stroke-width:0.1898;stroke-miterlimit:10;}
	.st23{fill:#FFFFFF;}
	.st24{fill:#3B3B3B;}
	.st25{fill:#5C5C5C;}
	.st26{fill:#DBA591;}
	.st27{fill:#008DC4;}
	.st28{fill:#E6B19C;}
	.st29{fill:#DBA18A;}
	.st30{fill:#301B1A;}
	.st31{fill:#009FDE;}
	.st32{fill:none;stroke:#0FB300;stroke-width:4;stroke-miterlimit:10;}
	.st33{fill:none;stroke:#D52B1E;stroke-width:4;stroke-miterlimit:10;}
	.st34{fill:#FFECD4;}
	.st35{fill:#FFE8E8;}
	.st36{opacity:0.4;}
	.st37{fill-rule:evenodd;clip-rule:evenodd;fill:#61B85A;}
	.st38{fill-rule:evenodd;clip-rule:evenodd;fill:#F7D945;}
	.st39{fill-rule:evenodd;clip-rule:evenodd;fill:#FF5445;}
	.st40{fill-rule:evenodd;clip-rule:evenodd;fill:#EB6154;}
	.st41{opacity:0.21;}
	.st42{fill:url(#SVGID_1_);}
	.st43{opacity:0.5;}
	.st44{fill:url(#SVGID_00000165213007736214811710000006446844969575302323_);}
	.st45{fill:url(#SVGID_00000132059810576724098060000008460799960027561398_);}
</style>
<g id="FINAL_ICONS_ON_ARTBOARDS">
	<g id="UNPAIR_BLUETOOTH">
	</g>
	<g id="VIEW_RECENT_ERRORS">
	</g>
	<g id="PAST_RESULTS">
	</g>
	<g id="QUALITY_CONTROL_1_">
	</g>
	<g id="TRASH_CAN_1_">
	</g>
	<g id="_x30_4_QC_EXP.">
	</g>
	<g id="_x30_3_QC_EXP.">
	</g>
	<g id="_x30_2_QC_EXP.">
	</g>
	<g id="_x30_1_QC_EXP.">
	</g>
	<g id="_x30_3B_DEVICE_EXP.">
	</g>
	<g id="_x30_3A_DEVICE_EXP.">
	</g>
	<g id="_x30_2_DEVICE_EXP.">
	</g>
	<g id="_x30_1_DEVICE_EXP.">
	</g>
	<g id="_x30_4C_BATTERY">
	</g>
	<g id="_x30_4B_BATTERY">
		<g>
			<path class="st9" d="M13.45,10.46c0.01-0.04,0-0.08-0.02-0.11c-0.02-0.03-0.06-0.05-0.1-0.05H9.03c-0.06,0-0.11,0.04-0.12,0.1
				L6.17,22.3c-0.01,0.04,0,0.08,0.02,0.11c0.02,0.03,0.06,0.05,0.1,0.05h3.86l-2.08,7.63c-0.02,0.06,0.01,0.12,0.07,0.15
				c0.02,0.01,0.03,0.01,0.05,0.01c0.04,0,0.08-0.02,0.11-0.06l6.99-11.33c0.02-0.04,0.02-0.09,0-0.13
				c-0.02-0.04-0.06-0.06-0.11-0.06h-3.84L13.45,10.46z"/>
			<path class="st9" d="M20.45,4.5H16.5V0.98C16.5,0.34,16.05,0,15.6,0H5.9C5.4,0,5,0.4,5,0.89V4.5H1.05C0.47,4.5,0,4.96,0,5.53
				v29.15c0,0.56,0.47,1.02,1.05,1.02h19.4c0.21,0,0.38-0.06,0.5-0.11c0.32-0.09,0.55-0.38,0.55-0.72V5.71
				C21.5,4.88,20.95,4.5,20.45,4.5z M20,34.2H1.5V6h5l0-4.5H15L14.98,6H20V34.2z"/>
		</g>
	</g>
	<g id="_x30_4A_BATTERY">
	</g>
	<g id="_x30_3C_BATTERY">
	</g>
	<g id="_x30_3B_BATTERY">
	</g>
	<g id="_x30_3A_BATTERY">
	</g>
	<g id="_x30_2_BATTERY">
	</g>
	<g id="_x30_1_BATTERY">
	</g>
	<g id="SHORT">
	</g>
	<g id="STANDARD">
	</g>
	<g id="_x30_0" class="st13">
		<rect x="-145.99" y="-19.62" class="st14" width="645.32" height="19.68"/>
		<rect x="-145.99" y="35.63" class="st14" width="645.32" height="19.68"/>
	</g>
</g>
<g id="POSTURE_ILLOS">
	<g id="_x30_2_GOOD_POSTURE">
	</g>
	<g id="_x30_1_BAD_POSTURE">
	</g>
</g>
</svg>
