<?xml version="1.0" encoding="utf-8"?>
<!-- Generator: Adobe Illustrator 26.0.2, SVG Export Plug-In . SVG Version: 6.00 Build 0)  -->
<svg version="1.1" xmlns="http://www.w3.org/2000/svg" xmlns:xlink="http://www.w3.org/1999/xlink" x="0px" y="0px"
	 viewBox="0 0 16.18 36.3" style="enable-background:new 0 0 16.18 36.3;" xml:space="preserve">
<style type="text/css">
	.st0{fill:#457CBE;}
	.st1{display:none;fill:#457CBE;}
	.st2{display:none;opacity:0.4;fill:#FFFFFF;}
	.st3{display:none;fill:none;stroke:#FFFFFF;stroke-width:1.3711;stroke-miterlimit:10;}
	.st4{fill:#4D4D4D;}
	.st5{fill:#0FB300;}
	.st6{fill:#EF9221;}
	.st7{fill:#FDCE94;}
	.st8{fill:#D32D27;}
	.st9{fill:#F09320;}
	.st10{fill:#D52B1E;}
	.st11{fill:#B871C9;}
	.st12{fill:#407CC9;}
	.st13{display:none;}
	.st14{display:inline;opacity:0.3;fill:#231F20;}
	.st15{fill:#BDB7B0;}
	.st16{fill:#231F20;}
	.st17{fill:#EBEBEB;stroke:#DEDEDE;stroke-width:0.1324;stroke-miterlimit:10;}
	.st18{fill:none;stroke:#919191;stroke-width:0.1986;stroke-miterlimit:10;}
	.st19{fill:none;stroke:#919191;stroke-width:0.2139;stroke-miterlimit:10;}
	.st20{fill:none;stroke:#919191;stroke-width:0.1899;stroke-miterlimit:10;}
	.st21{fill:none;stroke:#919191;stroke-width:0.1914;stroke-miterlimit:10;}
	.st22{fill:none;stroke:#919191;stroke-width:0.1898;stroke-miterlimit:10;}
	.st23{fill:#FFFFFF;}
	.st24{fill:#3B3B3B;}
	.st25{fill:#5C5C5C;}
	.st26{fill:#DBA591;}
	.st27{fill:#008DC4;}
	.st28{fill:#E6B19C;}
	.st29{fill:#DBA18A;}
	.st30{fill:#301B1A;}
	.st31{fill:#009FDE;}
	.st32{fill:none;stroke:#0FB300;stroke-width:4;stroke-miterlimit:10;}
	.st33{fill:none;stroke:#D52B1E;stroke-width:4;stroke-miterlimit:10;}
	.st34{fill:#FFECD4;}
	.st35{fill:#FFE8E8;}
	.st36{opacity:0.4;}
	.st37{fill-rule:evenodd;clip-rule:evenodd;fill:#61B85A;}
	.st38{fill-rule:evenodd;clip-rule:evenodd;fill:#F7D945;}
	.st39{fill-rule:evenodd;clip-rule:evenodd;fill:#FF5445;}
	.st40{fill-rule:evenodd;clip-rule:evenodd;fill:#EB6154;}
	.st41{opacity:0.21;}
	.st42{fill:url(#SVGID_1_);}
	.st43{opacity:0.5;}
	.st44{fill:url(#SVGID_00000092458486242033297130000011647521045226186383_);}
	.st45{fill:url(#SVGID_00000119103591984104184260000008515544239000638143_);}
</style>
<g id="FINAL_ICONS_ON_ARTBOARDS">
	<g id="UNPAIR_BLUETOOTH">
	</g>
	<g id="VIEW_RECENT_ERRORS">
	</g>
	<g id="PAST_RESULTS">
	</g>
	<g id="QUALITY_CONTROL_1_">
	</g>
	<g id="TRASH_CAN_1_">
	</g>
	<g id="_x30_4_QC_EXP.">
	</g>
	<g id="_x30_3_QC_EXP.">
	</g>
	<g id="_x30_2_QC_EXP.">
	</g>
	<g id="_x30_1_QC_EXP.">
	</g>
	<g id="_x30_3B_DEVICE_EXP.">
	</g>
	<g id="_x30_3A_DEVICE_EXP.">
	</g>
	<g id="_x30_2_DEVICE_EXP.">
		<g>
			<path class="st9" d="M15.83,1.34c-0.58-1.09-1.65-1.61-2.44-1.2l-2.53,1.34l-0.35-0.46c-0.41-0.53-1.22-0.78-2.55-0.78
				c-1.32,0-2.92,0.26-3.37,0.4c-0.94,0.28-3.43,2.09-3.45,2.1C0.27,3.39-0.04,3.95,0,4.81c0.03,0.47,0.32,1.85,0.64,3.35l0.13,0.59
				c0.28,1.31,0.79,2.14,1.61,2.58c0.29,0.16,0.54,0.9,0.54,1.27c0,0.34-0.53,6.79-0.99,12.27c-0.32,0.13-0.89,0.48-1.21,1.53
				c-0.2,0.66-0.15,6.04-0.14,6.64c-0.01,0.52,0.22,0.97,0.65,1.29c0.16,0.12,0.38,0.28,8.7,1.95c0.05,0.01,0.1,0.01,0.14,0.01
				c0.17,0,0.34-0.06,0.47-0.17l4.1-3.32c0.18-0.14,0.28-0.36,0.28-0.59c0-0.87-0.12-16.95-0.18-18.59
				c-0.11-2.96-0.29-4.85-0.54-5.62c-0.11-0.32-0.43-0.99-0.77-1.69C13.28,6,13.12,5.66,12.97,5.35l2.48-1.32
				C16.25,3.61,16.42,2.45,15.83,1.34z M13.25,13.69c0.05,1.5,0.16,15.82,0.18,18.19l-3.54,2.87c-2.72-0.55-6.52-1.34-7.63-1.61
				c-0.05-0.01-0.18-0.04-0.18-0.39c-0.01-2.97,0.03-5.63,0.09-5.9c0.16-0.53,0.31-0.57,0.48-0.63c0.5-0.16,0.76-0.46,0.76-0.86
				c0.01-0.12,1.03-12.26,1.03-12.76c0-0.61-0.32-2.04-1.33-2.59C2.69,9.8,2.42,9.3,2.24,8.44L2.1,7.76
				C1.88,6.77,1.52,5.11,1.5,4.73C1.49,4.47,1.48,4.37,2.04,3.95C3.03,3.23,4.64,2.2,5.04,2.08C5.31,2,6.71,1.75,7.97,1.75
				c1.09,0,1.36,0.2,1.36,0.2l0,0C9.37,1.99,9.43,2.07,9.51,2.2L9.42,2.25c-0.8,0.42-0.97,1.58-0.38,2.69
				c0.44,0.83,1.14,1.35,1.83,1.35c0.21,0,0.42-0.05,0.6-0.15l0.11-0.06c0.46,0.88,0.76,1.45,0.83,1.6
				c0.27,0.56,0.35,0.77,0.37,0.85C12.98,9.15,13.15,11.08,13.25,13.69z M14.68,2.74l-3.83,2.03c-0.1-0.05-0.31-0.2-0.49-0.53
				c-0.18-0.34-0.18-0.59-0.17-0.7l3.83-2.03c0.09,0.05,0.3,0.19,0.48,0.53C14.69,2.38,14.69,2.64,14.68,2.74z"/>
			<path class="st9" d="M5.83,19.21l-0.57,6.93c-0.02,0.33-0.17,1.2-1.14,1.81c-0.03,0.81-0.06,2.36-0.05,3.98
				c0.6,0.12,4.4,0.81,5.19,0.97c0.04,0.01,0.08,0.02,0.11,0.02h0c0-0.01,0.04-0.03,0.08-0.06c0.16-0.11,1.36-1.06,1.93-1.56
				c0.05-0.05,0.06-0.05,0.06-0.26c-0.02-2.33-0.09-7.59-0.14-11.82H5.83z"/>
		</g>
	</g>
	<g id="_x30_1_DEVICE_EXP.">
	</g>
	<g id="_x30_4C_BATTERY">
	</g>
	<g id="_x30_4B_BATTERY">
	</g>
	<g id="_x30_4A_BATTERY">
	</g>
	<g id="_x30_3C_BATTERY">
	</g>
	<g id="_x30_3B_BATTERY">
	</g>
	<g id="_x30_3A_BATTERY">
	</g>
	<g id="_x30_2_BATTERY">
	</g>
	<g id="_x30_1_BATTERY">
	</g>
	<g id="SHORT">
	</g>
	<g id="STANDARD">
	</g>
	<g id="_x30_0" class="st13">
		<rect x="-204.39" y="-19.67" class="st14" width="645.32" height="19.68"/>
		<rect x="-204.36" y="35.73" class="st14" width="645.32" height="19.68"/>
	</g>
</g>
<g id="POSTURE_ILLOS">
	<g id="_x30_2_GOOD_POSTURE">
	</g>
	<g id="_x30_1_BAD_POSTURE">
	</g>
</g>
</svg>
