<?xml version="1.0" encoding="utf-8"?>
<!-- Generator: Adobe Illustrator 26.0.2, SVG Export Plug-In . SVG Version: 6.00 Build 0)  -->
<svg version="1.1" xmlns="http://www.w3.org/2000/svg" xmlns:xlink="http://www.w3.org/1999/xlink" x="0px" y="0px"
	 viewBox="0 0 26.74 35.59" style="enable-background:new 0 0 26.74 35.59;" xml:space="preserve">
<style type="text/css">
	.st0{fill:#457CBE;}
	.st1{display:none;fill:#457CBE;}
	.st2{display:none;opacity:0.4;fill:#FFFFFF;}
	.st3{display:none;fill:none;stroke:#FFFFFF;stroke-width:1.3711;stroke-miterlimit:10;}
	.st4{fill:#4D4D4D;}
	.st5{fill:#0FB300;}
	.st6{fill:#EF9221;}
	.st7{fill:#FDCE94;}
	.st8{fill:#D32D27;}
	.st9{fill:#F09320;}
	.st10{fill:#D52B1E;}
	.st11{fill:#B871C9;}
	.st12{fill:#407CC9;}
	.st13{display:none;}
	.st14{display:inline;opacity:0.3;fill:#231F20;}
	.st15{fill:#BDB7B0;}
	.st16{fill:#231F20;}
	.st17{fill:#EBEBEB;stroke:#DEDEDE;stroke-width:0.1324;stroke-miterlimit:10;}
	.st18{fill:none;stroke:#919191;stroke-width:0.1986;stroke-miterlimit:10;}
	.st19{fill:none;stroke:#919191;stroke-width:0.2139;stroke-miterlimit:10;}
	.st20{fill:none;stroke:#919191;stroke-width:0.1899;stroke-miterlimit:10;}
	.st21{fill:none;stroke:#919191;stroke-width:0.1914;stroke-miterlimit:10;}
	.st22{fill:none;stroke:#919191;stroke-width:0.1898;stroke-miterlimit:10;}
	.st23{fill:#FFFFFF;}
	.st24{fill:#3B3B3B;}
	.st25{fill:#5C5C5C;}
	.st26{fill:#DBA591;}
	.st27{fill:#008DC4;}
	.st28{fill:#E6B19C;}
	.st29{fill:#DBA18A;}
	.st30{fill:#301B1A;}
	.st31{fill:#009FDE;}
	.st32{fill:none;stroke:#0FB300;stroke-width:4;stroke-miterlimit:10;}
	.st33{fill:none;stroke:#D52B1E;stroke-width:4;stroke-miterlimit:10;}
	.st34{fill:#FFECD4;}
	.st35{fill:#FFE8E8;}
	.st36{opacity:0.4;}
	.st37{fill-rule:evenodd;clip-rule:evenodd;fill:#61B85A;}
	.st38{fill-rule:evenodd;clip-rule:evenodd;fill:#F7D945;}
	.st39{fill-rule:evenodd;clip-rule:evenodd;fill:#FF5445;}
	.st40{fill-rule:evenodd;clip-rule:evenodd;fill:#EB6154;}
	.st41{opacity:0.21;}
	.st42{fill:url(#SVGID_1_);}
	.st43{opacity:0.5;}
	.st44{fill:url(#SVGID_00000041974781560643861980000004959527758719874447_);}
	.st45{fill:url(#SVGID_00000168089987329588431920000005204332144311997080_);}
</style>
<g id="FINAL_ICONS_ON_ARTBOARDS">
	<g id="UNPAIR_BLUETOOTH">
	</g>
	<g id="VIEW_RECENT_ERRORS">
	</g>
	<g id="PAST_RESULTS">
	</g>
	<g id="QUALITY_CONTROL_1_">
	</g>
	<g id="TRASH_CAN_1_">
		<g>
			<path class="st4" d="M9.48,31.11c-0.42,0-0.78-0.32-0.81-0.75L7.03,11.11c-0.04-0.45,0.3-0.84,0.74-0.88
				c0.44-0.04,0.84,0.29,0.88,0.74l1.64,19.25c0.04,0.45-0.29,0.84-0.74,0.88C9.53,31.11,9.51,31.11,9.48,31.11z"/>
			<path class="st4" d="M17.26,31.11c-0.02,0-0.05,0-0.07,0c-0.45-0.04-0.78-0.43-0.74-0.88l1.64-19.25
				c0.04-0.45,0.44-0.79,0.88-0.74c0.45,0.04,0.78,0.43,0.74,0.88l-1.64,19.25C18.03,30.79,17.68,31.11,17.26,31.11z"/>
			<path class="st4" d="M25.92,3.07h-7.35V0.82c0-0.45-0.37-0.82-0.82-0.82H8.98C8.53,0,8.17,0.37,8.17,0.82v2.25H0.82
				C0.37,3.07,0,3.43,0,3.88V6.9c0,0.45,0.37,0.82,0.82,0.82h1.35l2.14,27.12c0.03,0.42,0.39,0.75,0.81,0.75h16.5
				c0.43,0,0.78-0.33,0.81-0.75l2.15-27.12h1.35c0.45,0,0.82-0.37,0.82-0.82V3.88C26.74,3.43,26.38,3.07,25.92,3.07z M9.8,1.63h7.14
				v1.43H9.8V1.63z M20.86,33.96H5.88L3.8,7.71h19.14L20.86,33.96z M25.11,6.08h-1.24c-0.01,0-0.03-0.01-0.04-0.01H2.92
				c-0.01,0-0.03,0.01-0.04,0.01H1.63V4.7h23.48V6.08z"/>
			<path class="st4" d="M13.45,31.06c-0.45,0-0.82-0.37-0.82-0.82v-19.2c0-0.45,0.37-0.82,0.82-0.82c0.45,0,0.82,0.37,0.82,0.82
				v19.2C14.27,30.7,13.9,31.06,13.45,31.06z"/>
		</g>
	</g>
	<g id="_x30_4_QC_EXP.">
	</g>
	<g id="_x30_3_QC_EXP.">
	</g>
	<g id="_x30_2_QC_EXP.">
	</g>
	<g id="_x30_1_QC_EXP.">
	</g>
	<g id="_x30_3B_DEVICE_EXP.">
	</g>
	<g id="_x30_3A_DEVICE_EXP.">
	</g>
	<g id="_x30_2_DEVICE_EXP.">
	</g>
	<g id="_x30_1_DEVICE_EXP.">
	</g>
	<g id="_x30_4C_BATTERY">
	</g>
	<g id="_x30_4B_BATTERY">
	</g>
	<g id="_x30_4A_BATTERY">
	</g>
	<g id="_x30_3C_BATTERY">
	</g>
	<g id="_x30_3B_BATTERY">
	</g>
	<g id="_x30_3A_BATTERY">
	</g>
	<g id="_x30_2_BATTERY">
	</g>
	<g id="_x30_1_BATTERY">
	</g>
	<g id="SHORT">
	</g>
	<g id="STANDARD">
	</g>
	<g id="_x30_0" class="st13">
		<rect x="-36.47" y="-36.53" class="st14" width="36.53" height="479.66"/>
		<rect x="-322.39" y="-36.53" class="st14" width="645.32" height="36.53"/>
	</g>
</g>
<g id="POSTURE_ILLOS">
	<g id="_x30_2_GOOD_POSTURE">
	</g>
	<g id="_x30_1_BAD_POSTURE">
	</g>
</g>
</svg>
