<?xml version="1.0" encoding="utf-8"?>
<!-- Generator: Adobe Illustrator 26.0.2, SVG Export Plug-In . SVG Version: 6.00 Build 0)  -->
<svg version="1.1" xmlns="http://www.w3.org/2000/svg" xmlns:xlink="http://www.w3.org/1999/xlink" x="0px" y="0px"
	 viewBox="0 0 39.03 33.42" style="enable-background:new 0 0 39.03 33.42;" xml:space="preserve">
<style type="text/css">
	.st0{fill:#457CBE;}
	.st1{display:none;fill:#457CBE;}
	.st2{display:none;opacity:0.4;fill:#FFFFFF;}
	.st3{display:none;fill:none;stroke:#FFFFFF;stroke-width:1.3711;stroke-miterlimit:10;}
	.st4{fill:#4D4D4D;}
	.st5{fill:#0FB300;}
	.st6{fill:#EF9221;}
	.st7{fill:#FDCE94;}
	.st8{fill:#D32D27;}
	.st9{fill:#F09320;}
	.st10{fill:#D52B1E;}
	.st11{fill:#B871C9;}
	.st12{fill:#407CC9;}
	.st13{display:none;}
	.st14{display:inline;opacity:0.3;fill:#231F20;}
	.st15{fill:#BDB7B0;}
	.st16{fill:#231F20;}
	.st17{fill:#EBEBEB;stroke:#DEDEDE;stroke-width:0.1324;stroke-miterlimit:10;}
	.st18{fill:none;stroke:#919191;stroke-width:0.1986;stroke-miterlimit:10;}
	.st19{fill:none;stroke:#919191;stroke-width:0.2139;stroke-miterlimit:10;}
	.st20{fill:none;stroke:#919191;stroke-width:0.1899;stroke-miterlimit:10;}
	.st21{fill:none;stroke:#919191;stroke-width:0.1914;stroke-miterlimit:10;}
	.st22{fill:none;stroke:#919191;stroke-width:0.1898;stroke-miterlimit:10;}
	.st23{fill:#FFFFFF;}
	.st24{fill:#3B3B3B;}
	.st25{fill:#5C5C5C;}
	.st26{fill:#DBA591;}
	.st27{fill:#008DC4;}
	.st28{fill:#E6B19C;}
	.st29{fill:#DBA18A;}
	.st30{fill:#301B1A;}
	.st31{fill:#009FDE;}
	.st32{fill:none;stroke:#0FB300;stroke-width:4;stroke-miterlimit:10;}
	.st33{fill:none;stroke:#D52B1E;stroke-width:4;stroke-miterlimit:10;}
	.st34{fill:#FFECD4;}
	.st35{fill:#FFE8E8;}
	.st36{opacity:0.4;}
	.st37{fill-rule:evenodd;clip-rule:evenodd;fill:#61B85A;}
	.st38{fill-rule:evenodd;clip-rule:evenodd;fill:#F7D945;}
	.st39{fill-rule:evenodd;clip-rule:evenodd;fill:#FF5445;}
	.st40{fill-rule:evenodd;clip-rule:evenodd;fill:#EB6154;}
	.st41{opacity:0.21;}
	.st42{fill:url(#SVGID_1_);}
	.st43{opacity:0.5;}
	.st44{fill:url(#SVGID_00000106828041310013601470000011958493049222990478_);}
	.st45{fill:url(#SVGID_00000044884366611749347240000004534116505681027246_);}
</style>
<g id="FINAL_ICONS_ON_ARTBOARDS">
	<g id="UNPAIR_BLUETOOTH">
	</g>
	<g id="VIEW_RECENT_ERRORS">
	</g>
	<g id="PAST_RESULTS">
		<g id="_x30_2_PAST_RESULTS_2_">
			<g>
				<path class="st1" d="M-4.73,23.13h4.78V15c0-0.52,0.41-0.94,0.91-0.94h6.4c0.21,0,0.9,0.09,0.9,1.3v7.78h4.24l-1.2,2.02
					l-2.64,2.02h-9.92L-4.73,23.13z"/>
				<g>
					<path class="st2" d="M-4.49,18.59c0,4.6,3.73,8.33,8.33,8.33c4.6,0,8.33-3.73,8.33-8.33c0-4.6-3.73-8.33-8.33-8.33
						C-0.76,10.26-4.49,13.99-4.49,18.59"/>
				</g>
			</g>
			<path class="st3" d="M11.39,18.52c0,4.15-3.37,7.52-7.52,7.52c-4.15,0-7.52-3.37-7.52-7.52c0-4.15,3.37-7.52,7.52-7.52
				C8.03,11,11.39,14.37,11.39,18.52z"/>
			<g>
				<path class="st0" d="M38.88,21.36c-0.13-0.46-0.54-0.79-1.04-0.79h-2.7V1.65c0-1.3-0.87-1.65-1.38-1.65h-4.43
					c-0.76,0-1.38,0.63-1.38,1.4v19.17h-2.58V6.53c0-1.14-0.69-1.65-1.38-1.65h-4.43c-0.76,0-1.38,0.63-1.38,1.39l-0.05,2.95
					c0.56,0.62,1.06,1.29,1.46,2.02l0.08-4.87h4.18c0.01,0.04,0.01,0.08,0.01,0.15v15.54h5.58V1.5h4.18c0,0.04,0.01,0.08,0.01,0.15
					v20.42h3.88v3.16H22.65l1.5,1.5H37.6c0.79,0,1.43-0.66,1.43-1.47v-3.22C39.03,21.76,38.95,21.53,38.88,21.36z"/>
				<path class="st0" d="M19.42,22.03c-0.01,0.01-0.02,0.03-0.03,0.04h0.02L19.42,22.03z"/>
				<path class="st0" d="M20.87,24.82c-0.43-0.43-0.84-0.51-1.01-0.56c-0.31-0.08-0.58-0.13-1.01-0.56l-1.01-1l-0.03-0.05l-0.1,0.1
					c1.81-2.25,2.65-5.26,2.01-8.31c-1.13-5.38-6.43-8.83-11.81-7.7c-1.8,0.38-3.39,1.23-4.67,2.39c-2.52,2.3-3.79,5.84-3.04,9.41
					c1.13,5.38,6.43,8.84,11.81,7.7c1.5-0.32,2.86-0.96,4-1.84c0.1-0.08,0.19-0.16,0.29-0.24l-0.1,0.1l0.13-0.06l1.01,1.01
					c0.43,0.43,0.51,0.74,0.56,1.01c0.03,0.17,0.12,0.58,0.56,1.01l5.86,5.87c0.43,0.43,1.14,0.43,1.57,0l0.85-0.85
					c0.43-0.43,0.43-1.14,0-1.57L20.87,24.82z M4.38,10.38C5.44,9.41,6.76,8.7,8.26,8.38c4.47-0.94,8.88,1.93,9.82,6.41
					c0.37,1.78,0.13,3.53-0.56,5.07h-2.44v-5.21c0-1.8-1.19-2.28-1.89-2.28H6.8c-1.04,0-1.89,0.86-1.89,1.93v5.56H2.4
					c0,0,0.01,0.02,0.01,0.02c-0.24-0.53-0.42-1.09-0.55-1.68C1.23,15.23,2.29,12.29,4.38,10.38z M2.71,20.5
					c0.02,0.04,0.05,0.09,0.07,0.13C2.76,20.58,2.73,20.54,2.71,20.5z M3.08,21.1l0.14,0.21C3.17,21.24,3.13,21.17,3.08,21.1z
					 M15,23.09c-0.95,0.73-2.08,1.26-3.33,1.53c-3.31,0.7-6.58-0.7-8.44-3.29h3.2v-7.04c0,0,0.06-0.37,0.39-0.37l6.31,0v0
					c0.33,0,0.39,0.37,0.39,0.37l0,7.04h2.78h0.38C16.22,21.99,15.66,22.59,15,23.09z"/>
			</g>
		</g>
	</g>
	<g id="QUALITY_CONTROL_1_">
	</g>
	<g id="TRASH_CAN_1_">
	</g>
	<g id="_x30_4_QC_EXP.">
	</g>
	<g id="_x30_3_QC_EXP.">
	</g>
	<g id="_x30_2_QC_EXP.">
	</g>
	<g id="_x30_1_QC_EXP.">
	</g>
	<g id="_x30_3B_DEVICE_EXP.">
	</g>
	<g id="_x30_3A_DEVICE_EXP.">
	</g>
	<g id="_x30_2_DEVICE_EXP.">
	</g>
	<g id="_x30_1_DEVICE_EXP.">
	</g>
	<g id="_x30_4C_BATTERY">
	</g>
	<g id="_x30_4B_BATTERY">
	</g>
	<g id="_x30_4A_BATTERY">
	</g>
	<g id="_x30_3C_BATTERY">
	</g>
	<g id="_x30_3B_BATTERY">
	</g>
	<g id="_x30_3A_BATTERY">
	</g>
	<g id="_x30_2_BATTERY">
	</g>
	<g id="_x30_1_BATTERY">
	</g>
	<g id="SHORT">
	</g>
	<g id="STANDARD">
	</g>
	<g id="_x30_0" class="st13">
		<rect x="-445.9" y="-36.53" class="st14" width="645.32" height="36.53"/>
	</g>
</g>
<g id="POSTURE_ILLOS">
	<g id="_x30_2_GOOD_POSTURE">
	</g>
	<g id="_x30_1_BAD_POSTURE">
	</g>
</g>
</svg>
